<!DOCTYPE svg PUBLIC "-//W3C//DTD SVG 20010904//EN"
 "http://www.w3.org/TR/2001/REC-SVG-20010904/DTD/svg10.dtd">
 <svg version="1.0" xmlns="http://www.w3.org/2000/svg" width="70" height="70"  viewBox="0 0 1500.000000 1500.000000" preserveAspectRatio="xMidYMid meet">
<g class="svg_teste" transform="translate(0.000000,1500.000000) scale(0.100000,-0.100000)"
fill="#000000" stroke="none">
<path d="M7280 14984 c-1322 -45 -2531 -397 -3640 -1062 -813 -487 -1544
-1143 -2120 -1902 -816 -1077 -1324 -2351 -1470 -3689 -32 -298 -42 -493 -42
-826 0 -333 10 -528 42 -826 168 -1538 810 -2979 1848 -4149 123 -139 438
-455 582 -584 965 -867 2114 -1461 3360 -1740 1462 -327 2994 -210 4380 334
805 316 1571 786 2225 1364 150 133 463 444 599 596 1056 1177 1707 2627 1876
4179 33 307 43 487 43 826 0 339 -10 519 -43 826 -167 1536 -810 2979 -1848
4149 -123 139 -438 455 -582 584 -1262 1133 -2843 1800 -4515 1905 -183 12
-555 20 -695 15z m3645 -2378 c104 -18 180 -46 274 -98 69 -38 143 -109 771
-738 629 -628 700 -702 738 -771 70 -125 112 -278 112 -404 0 -61 -23 -192
-45 -261 -29 -87 -98 -207 -134 -231 -50 -34 -112 -39 -163 -14 -31 15 -352
330 -1114 1093 -1152 1153 -1104 1101 -1090 1191 10 61 45 99 133 145 178 92
340 119 518 88z m-1795 -38 c119 -28 177 -53 280 -121 111 -74 3165 -3128
3236 -3237 105 -160 136 -264 136 -460 0 -134 -8 -180 -47 -293 -50 -145 -96
-200 -554 -658 -423 -423 -480 -471 -613 -526 -118 -48 -164 -56 -318 -56
-103 0 -161 5 -200 16 -30 9 -66 19 -80 23 -51 14 -177 88 -240 140 -77 63
-3113 3101 -3157 3159 -35 45 -106 177 -117 215 -4 14 -14 50 -23 80 -23 77
-23 323 0 400 9 30 19 66 23 80 15 52 88 177 144 245 79 95 803 812 865 857
127 90 264 141 405 152 69 5 210 -4 260 -16z m-1029 -3319 c19 -6 50 -18 69
-26 44 -19 1211 -1181 1244 -1238 55 -95 59 -213 11 -311 -22 -45 -177 -205
-913 -943 -488 -488 -908 -904 -934 -924 -26 -19 -72 -43 -102 -51 -89 -26
-149 -21 -246 21 -44 19 -1211 1181 -1244 1238 -34 58 -49 126 -44 192 10 125
-32 78 976 1085 861 860 931 927 982 946 61 23 149 28 201 11z m-3766 -1478
c17 -5 50 -15 75 -22 56 -16 182 -81 235 -122 58 -44 3096 -3080 3159 -3157
52 -63 126 -189 140 -240 4 -14 14 -50 23 -80 11 -39 16 -97 16 -200 0 -154
-8 -200 -56 -318 -55 -133 -104 -190 -526 -613 -458 -458 -513 -504 -658 -554
-113 -39 -159 -47 -293 -47 -147 0 -240 19 -346 68 -121 56 -174 107 -1747
1680 -862 863 -1583 1592 -1602 1621 -103 154 -136 265 -137 459 -1 203 39
332 150 489 44 62 750 774 852 859 124 104 275 172 420 190 54 6 262 -2 295
-13z m-1410 -2860 c57 -27 2168 -2141 2190 -2193 19 -47 19 -78 -1 -127 -32
-81 -192 -164 -379 -197 -101 -18 -159 -18 -260 0 -104 18 -180 46 -274 98
-69 38 -143 109 -771 738 -629 628 -700 702 -738 771 -144 259 -147 526 -10
792 66 127 143 164 243 118z"/>
</g>
</svg>
