<!DOCTYPE svg PUBLIC "-//W3C//DTD SVG 20010904//EN"
 "http://www.w3.org/TR/2001/REC-SVG-20010904/DTD/svg10.dtd">
 <svg version="1.0" xmlns="http://www.w3.org/2000/svg" width="80" height="80"  viewBox="0 0 1500.000000 1500.000000" preserveAspectRatio="xMidYMid meet">
<g class="svg_teste" transform="translate(0.000000,1500.000000) scale(0.100000,-0.100000)"
fill="#000000" stroke="none">
<path d="M7210 14990 c-594 -33 -1026 -95 -1530 -220 -835 -207 -1615 -552
-2331 -1031 -442 -294 -746 -545 -1145 -944 -267 -266 -428 -448 -627 -704
-1324 -1707 -1845 -3892 -1431 -6006 250 -1275 814 -2438 1673 -3444 147 -173
575 -603 749 -754 1264 -1100 2800 -1730 4477 -1837 376 -24 937 -7 1325 40
1504 183 2889 800 4032 1797 171 148 514 490 668 663 899 1014 1496 2218 1754
3535 138 707 173 1459 101 2180 -145 1443 -710 2813 -1629 3950 -343 424 -798
869 -1235 1209 -991 769 -2166 1279 -3401 1476 -454 72 -1073 111 -1450 90z
m2950 -3096 c130 -32 234 -72 330 -127 260 -148 460 -379 568 -657 12 -30 58
-176 102 -325 44 -148 92 -308 106 -355 14 -47 29 -96 34 -110 4 -14 18 -59
30 -100 12 -41 25 -86 30 -100 4 -14 13 -45 20 -70 12 -43 31 -106 70 -230 10
-30 23 -75 30 -100 7 -25 20 -70 30 -100 10 -30 23 -75 30 -100 7 -25 20 -70
30 -100 10 -30 23 -75 30 -100 7 -25 21 -70 30 -100 10 -30 27 -86 38 -125 11
-38 35 -117 52 -175 17 -58 36 -118 41 -135 37 -127 31 -117 105 -156 338
-173 570 -473 665 -862 18 -75 19 -134 19 -1502 l0 -1424 -26 -73 c-85 -238
-314 -415 -556 -431 l-38 -2 -3 -370 c-4 -411 -5 -417 -78 -556 -44 -84 -173
-214 -256 -257 -140 -74 -127 -72 -621 -72 l-445 0 -71 26 c-92 33 -162 74
-225 130 -81 73 -154 183 -180 274 -7 25 -17 55 -22 68 -5 13 -9 189 -9 392
l0 370 -2520 0 -2520 0 0 -364 c0 -199 -4 -376 -9 -392 -5 -16 -15 -49 -22
-74 -43 -145 -171 -295 -318 -370 -118 -59 -118 -59 -599 -60 -417 0 -446 1
-505 20 -204 67 -359 221 -429 430 -21 61 -22 85 -25 435 l-4 370 -37 2 c-73
5 -148 26 -231 66 -147 69 -274 215 -331 383 -19 56 -20 94 -20 1480 0 1384 1
1425 20 1506 90 377 320 676 660 855 l75 39 23 80 c13 43 37 124 53 179 17 55
40 132 51 170 11 39 28 95 38 125 9 30 23 75 30 100 7 25 20 70 30 100 10 30
23 75 30 100 7 25 20 65 28 90 8 25 18 59 22 75 5 17 18 62 30 100 12 39 25
84 30 100 5 17 18 62 30 100 12 39 25 84 30 100 5 17 18 62 30 100 35 113 81
268 90 300 9 32 118 399 151 505 109 356 324 625 631 789 90 49 163 77 293
112 l100 27 2566 1 2566 1 103 -26z"/>
<path d="M5134 10639 c-4 -6 -10 -25 -14 -43 -5 -17 -18 -62 -30 -101 -12 -38
-25 -83 -30 -100 -5 -16 -18 -61 -30 -100 -12 -38 -25 -83 -30 -100 -5 -16
-18 -61 -30 -100 -12 -38 -25 -83 -30 -100 -5 -16 -18 -61 -30 -100 -12 -38
-25 -83 -30 -100 -5 -16 -18 -61 -30 -100 -12 -38 -39 -128 -60 -200 -124
-421 -203 -682 -211 -697 -5 -10 -9 -20 -9 -23 0 -3 1319 -5 2931 -5 2341 0
2930 3 2925 13 -11 27 -220 714 -246 812 -5 17 -18 62 -30 100 -12 39 -25 84
-30 100 -5 17 -18 62 -30 100 -12 39 -25 84 -30 100 -5 17 -18 62 -30 100 -12
39 -25 84 -30 100 -5 17 -18 62 -30 100 -12 39 -25 84 -30 100 -4 17 -16 55
-25 85 -10 30 -26 80 -35 110 l-17 55 -2361 3 c-1734 1 -2363 -1 -2368 -9z"/>
<path d="M4875 7165 c-145 -26 -232 -72 -336 -175 -104 -103 -145 -182 -175
-335 -18 -89 -18 -123 1 -212 24 -116 63 -201 126 -278 143 -175 376 -265 581
-225 125 25 190 53 284 124 119 89 195 215 229 378 19 90 19 124 1 213 -30
153 -71 232 -175 335 -106 105 -188 147 -341 176 -87 16 -101 16 -195 -1z"/>
<path d="M9925 7165 c-147 -27 -231 -71 -334 -173 -107 -106 -153 -196 -181
-355 -44 -243 105 -526 335 -636 170 -82 303 -91 490 -33 123 38 263 157 332
282 63 113 93 270 74 382 -28 160 -74 251 -181 358 -106 107 -186 148 -340
176 -87 16 -101 16 -195 -1z"/>
</g>
</svg>
