<!DOCTYPE svg PUBLIC "-//W3C//DTD SVG 20010904//EN"
 "http://www.w3.org/TR/2001/REC-SVG-20010904/DTD/svg10.dtd">
 <svg version="1.0" xmlns="http://www.w3.org/2000/svg" width="80" height="80"  viewBox="0 0 1500.000000 1500.000000" preserveAspectRatio="xMidYMid meet">
<g class="svg_teste" transform="translate(0.000000,1500.000000) scale(0.100000,-0.100000)"
fill="#000000" stroke="none">
<path d="M7050 14959 c-1661 -109 -3192 -740 -4455 -1838 -155 -135 -561 -541
-698 -699 -987 -1133 -1603 -2504 -1791 -3982 -43 -339 -50 -467 -50 -930 0
-463 7 -593 50 -930 194 -1521 845 -2938 1866 -4065 1213 -1338 2822 -2180
4608 -2409 325 -42 478 -50 930 -50 452 0 606 8 930 50 1627 210 3111 926
4274 2064 1224 1198 1984 2722 2200 4410 43 337 50 467 50 930 0 463 -7 593
-50 930 -189 1482 -802 2845 -1790 3982 -150 173 -571 590 -745 738 -839 718
-1777 1225 -2820 1525 -518 149 -1043 238 -1614 275 -183 12 -711 11 -895 -1z
m870 -2422 c220 -50 339 -91 510 -175 366 -179 676 -466 893 -824 56 -93 122
-226 115 -233 -7 -7 -3870 -6 -3877 0 -9 10 91 197 169 314 213 320 486 565
810 727 232 116 378 163 680 218 14 2 151 3 305 2 262 -2 288 -4 395 -29z
m2120 -2077 l0 -430 -205 0 c-204 0 -206 0 -214 -22 -11 -28 -4228 -4245
-4236 -4236 -3 3 -5 272 -5 598 l0 592 1530 1529 c842 841 1530 1531 1530
1534 0 3 -262 5 -583 5 l-582 0 -940 -940 c-517 -517 -943 -940 -947 -940 -5
0 -9 422 -10 938 l-3 937 -207 3 -208 2 0 430 0 430 2540 0 2540 0 0 -430z
m-420 -2253 l0 -592 -1320 -1320 c-726 -726 -1320 -1321 -1320 -1322 0 -2 262
-3 583 -3 l582 0 730 730 c401 402 733 730 737 730 5 0 9 -327 10 -727 l3
-728 208 -3 207 -2 0 -430 0 -430 -2540 0 -2540 0 0 430 0 430 403 0 402 0
1915 1915 c1053 1053 1921 1915 1927 1915 10 0 13 -125 13 -593z m-182 -4512
c6 -6 -46 -116 -101 -210 -169 -293 -445 -576 -732 -752 -181 -110 -395 -201
-585 -247 -214 -51 -212 -51 -520 -51 -308 0 -304 0 -520 51 -82 20 -228 69
-300 101 -110 50 -206 97 -245 123 -22 14 -52 31 -66 39 -68 34 -256 186 -364
295 -128 128 -175 185 -273 333 -60 88 -172 292 -172 312 0 5 8 11 17 13 28 5
3856 -1 3861 -7z"/>
</g>
</svg>
