<!DOCTYPE svg PUBLIC "-//W3C//DTD SVG 20010904//EN"
 "http://www.w3.org/TR/2001/REC-SVG-20010904/DTD/svg10.dtd">
 <svg version="1.0" xmlns="http://www.w3.org/2000/svg" width="80" height="80"  viewBox="0 0 1500.000000 1500.000000" preserveAspectRatio="xMidYMid meet">
<g class="svg_teste" transform="translate(0.000000,1500.000000) scale(0.100000,-0.100000)"
fill="#000000" stroke="none">
<path d="M7320 14994 c-30 -2 -140 -8 -245 -14 -1333 -77 -2599 -498 -3703
-1232 -449 -299 -756 -551 -1158 -953 -270 -269 -426 -445 -625 -701 -930
-1200 -1461 -2609 -1559 -4139 -13 -205 -13 -675 0 -880 90 -1403 543 -2704
1338 -3840 256 -365 498 -652 836 -991 267 -267 408 -394 650 -587 1610 -1280
3671 -1836 5716 -1541 1446 208 2815 849 3910 1832 176 157 497 482 643 650
977 1120 1594 2485 1787 3952 70 535 79 1182 24 1720 -156 1529 -765 2940
-1783 4130 -150 176 -599 625 -771 771 -1283 1094 -2786 1705 -4445 1809 -185
11 -535 19 -615 14z m-2190 -2876 c168 -26 336 -52 374 -58 38 -6 101 -15 140
-20 39 -6 100 -14 136 -20 74 -12 176 -27 270 -40 36 -5 97 -14 135 -20 39 -6
99 -15 135 -20 36 -6 94 -15 130 -20 36 -6 97 -15 135 -20 39 -6 97 -14 130
-19 33 -5 94 -15 135 -21 41 -6 102 -15 135 -20 33 -5 94 -14 135 -20 41 -6
102 -15 135 -20 70 -10 176 -26 273 -40 37 -5 159 -23 272 -40 424 -63 687
-102 745 -110 33 -5 93 -13 133 -19 39 -6 102 -15 140 -21 224 -32 290 -65
353 -182 l34 -63 0 -1325 0 -1325 -34 -63 c-68 -125 -125 -151 -416 -192 -44
-6 -107 -15 -140 -20 -126 -20 -622 -93 -880 -130 -115 -16 -240 -34 -277 -40
-38 -6 -97 -15 -133 -20 -36 -6 -94 -14 -130 -20 -36 -5 -97 -14 -135 -20
-182 -26 -219 -32 -270 -40 -30 -5 -89 -14 -130 -20 -41 -6 -102 -15 -135 -20
-33 -5 -96 -14 -140 -20 -44 -6 -105 -15 -135 -20 -30 -5 -91 -14 -135 -20
-44 -6 -102 -15 -130 -20 -27 -5 -70 -12 -95 -15 -25 -2 -74 -9 -110 -15 -36
-6 -96 -15 -135 -20 -38 -5 -99 -14 -135 -20 -188 -28 -555 -82 -624 -91 -44
-5 -84 -13 -89 -16 -5 -3 -77 -5 -161 -4 -138 1 -278 15 -410 42 -92 19 -292
79 -328 99 -10 6 -23 10 -29 10 -26 0 -292 141 -392 208 -333 221 -594 517
-764 864 -58 117 -83 176 -83 191 0 7 -4 17 -8 23 -20 21 -73 218 -102 378
-17 91 -20 153 -20 356 0 258 10 349 60 542 92 358 289 702 552 969 320 324
711 537 1136 619 59 12 123 25 142 29 19 5 125 8 235 7 182 -2 228 -6 505 -48z
m4773 -664 c34 -2 100 -9 147 -14 47 -5 131 -14 188 -20 331 -33 367 -42 435
-108 41 -39 63 -74 84 -132 19 -51 19 -2309 0 -2360 -21 -58 -43 -93 -84 -132
-68 -66 -121 -79 -423 -108 -153 -14 -286 -28 -393 -41 -49 -6 -91 -8 -94 -5
-3 3 0 70 6 148 9 106 11 467 8 1408 -3 696 -8 1292 -12 1324 l-7 59 42 -7
c23 -3 69 -9 103 -12z m2420 -552 c61 -27 124 -86 153 -144 20 -39 24 -62 24
-133 0 -102 -23 -159 -90 -219 -84 -76 -92 -77 -441 -77 -208 0 -323 4 -348
12 -20 6 -59 29 -88 50 -170 127 -143 401 50 501 56 29 122 33 434 31 236 -2
267 -4 306 -21z m3 -1252 c58 -25 121 -85 150 -142 20 -39 24 -62 24 -133 0
-102 -23 -159 -90 -219 -84 -75 -90 -76 -444 -77 -297 -1 -317 0 -361 20 -76
34 -122 76 -155 146 -71 149 -14 319 133 397 40 22 56 23 312 28 323 6 377 3
431 -20z m-9065 -2001 c97 -58 340 -179 361 -179 8 0 18 -4 24 -9 5 -5 29 -16
54 -24 25 -9 77 -27 115 -40 61 -21 135 -42 275 -77 36 -9 109 -22 220 -39 36
-6 136 -16 223 -22 168 -12 167 -12 487 36 19 3 64 9 100 15 36 5 97 14 135
20 39 6 99 15 135 20 36 5 94 14 130 19 36 6 97 15 136 20 39 6 75 11 80 12 5
1 15 1 22 0 9 -1 12 -300 12 -1461 l0 -1459 -21 -58 c-29 -76 -96 -143 -172
-172 -52 -19 -78 -21 -247 -21 l-190 0 0 -581 c0 -403 -3 -593 -11 -619 -17
-58 -78 -130 -139 -167 -51 -31 -61 -33 -143 -33 -69 0 -96 4 -128 21 -63 31
-124 94 -150 152 l-24 52 -3 587 -3 586 -122 4 c-106 3 -128 6 -170 27 -90 46
-138 109 -172 226 -9 33 -21 71 -25 85 -4 14 -13 45 -20 70 -7 25 -16 56 -20
70 -4 14 -13 45 -20 70 -7 25 -16 56 -20 70 -4 14 -13 45 -20 70 -7 25 -16 56
-20 70 -4 14 -13 45 -20 70 -7 25 -16 56 -21 70 -5 14 -15 50 -23 80 -8 30
-76 269 -151 530 -75 261 -145 508 -156 548 -11 40 -25 92 -33 115 -7 23 -19
62 -26 87 -7 25 -16 56 -20 70 -4 14 -13 45 -20 70 -7 25 -16 56 -20 70 -4 14
-13 43 -19 65 -6 22 -49 175 -96 340 -47 165 -90 318 -96 340 -6 22 -15 51
-19 65 -4 14 -13 45 -20 70 -7 25 -16 55 -21 68 -11 29 -12 52 -1 52 5 0 47
-23 93 -51z"/>
<path d="M4565 10899 c-230 -41 -395 -125 -533 -273 -173 -185 -247 -373 -247
-626 0 -130 8 -187 41 -289 84 -257 305 -480 561 -567 77 -26 230 -54 296 -54
60 0 184 19 257 38 168 44 352 169 463 314 57 75 137 220 137 250 0 9 4 19 9
22 9 6 10 11 36 171 13 83 14 117 5 200 -12 104 -15 117 -51 224 -76 227 -265
428 -494 524 -152 64 -342 90 -480 66z m261 -610 c156 -75 226 -263 157 -420
-27 -60 -106 -137 -171 -166 -90 -40 -205 -30 -294 25 -98 61 -148 153 -148
273 0 98 30 168 98 230 102 95 237 116 358 58z"/>
</g>
</svg>
