<!DOCTYPE svg PUBLIC "-//W3C//DTD SVG 20010904//EN"
 "http://www.w3.org/TR/2001/REC-SVG-20010904/DTD/svg10.dtd">
 <svg version="1.0" xmlns="http://www.w3.org/2000/svg" width="80" height="80"  viewBox="0 0 1500.000000 1500.000000" preserveAspectRatio="xMidYMid meet">
<g class="svg_teste" transform="translate(0.000000,1500.000000) scale(0.100000,-0.100000)"
fill="#000000" stroke="none">
<path d="M7210 14990 c-594 -33 -1026 -95 -1530 -220 -835 -207 -1615 -552
-2331 -1031 -442 -294 -746 -545 -1145 -944 -267 -266 -428 -448 -627 -704
-1324 -1707 -1845 -3892 -1431 -6006 250 -1275 814 -2438 1673 -3444 147 -173
575 -603 749 -754 1264 -1100 2800 -1730 4477 -1837 376 -24 937 -7 1325 40
1504 183 2889 800 4032 1797 171 148 514 490 668 663 899 1014 1496 2218 1754
3535 138 707 173 1459 101 2180 -145 1443 -710 2813 -1629 3950 -343 424 -798
869 -1235 1209 -991 769 -2166 1279 -3401 1476 -454 72 -1073 111 -1450 90z
m3065 -4180 c3 -5 14 -10 24 -10 30 0 95 -54 119 -99 31 -60 29 -122 -8 -210
-112 -272 -349 -497 -610 -579 -100 -32 -140 -41 -205 -47 -144 -14 -146 -15
-162 -54 -15 -37 -36 -84 -79 -179 -13 -29 -24 -54 -24 -56 0 -2 -18 -42 -39
-88 -54 -114 -71 -157 -71 -179 0 -15 115 -197 415 -659 23 -36 72 -111 108
-167 l66 -102 70 34 c39 19 75 35 81 35 6 0 19 5 30 10 11 6 29 15 40 20 11 6
29 10 39 10 11 0 22 4 25 9 3 5 18 11 33 14 16 3 70 17 121 31 51 14 134 32
185 40 104 17 382 39 412 32 11 -2 67 -7 125 -10 58 -4 125 -11 150 -16 25 -5
74 -14 110 -20 61 -12 182 -45 275 -75 169 -55 382 -163 540 -273 325 -226
578 -524 745 -877 55 -115 60 -128 80 -185 7 -19 16 -44 20 -55 5 -11 11 -31
15 -45 3 -14 10 -38 15 -55 60 -212 60 -210 60 -612 0 -400 2 -383 -52 -578
-77 -282 -220 -563 -405 -798 -77 -98 -281 -299 -378 -374 -250 -189 -525
-324 -800 -392 -22 -5 -58 -14 -80 -19 -72 -18 -161 -32 -203 -32 -22 0 -44
-4 -47 -10 -8 -14 -452 -14 -460 0 -3 6 -26 10 -50 10 -25 0 -64 4 -87 9 -24
6 -68 15 -98 21 -76 15 -118 27 -240 68 -331 110 -621 293 -871 549 -154 157
-282 329 -376 503 -37 70 -135 301 -152 360 -7 25 -17 56 -21 70 -5 14 -14 50
-21 80 -6 30 -17 75 -24 100 l-12 45 -103 0 -102 0 -38 -87 c-40 -93 -118
-207 -178 -259 -143 -126 -331 -199 -512 -199 -302 0 -579 190 -697 480 -29
69 -53 197 -53 276 0 101 45 265 97 356 18 31 33 61 33 68 0 11 -130 171 -585
720 -60 73 -123 149 -140 170 -57 72 -249 305 -255 310 -6 5 -198 239 -255
310 -16 21 -79 97 -140 170 -60 73 -123 149 -140 170 -54 67 -249 305 -262
317 -6 7 -21 25 -32 39 -12 15 -23 25 -25 23 -3 -4 -59 -180 -76 -239 -5 -19
-21 -71 -35 -115 -14 -43 -22 -82 -17 -86 4 -3 54 -30 112 -60 218 -110 380
-228 561 -408 162 -163 266 -299 370 -486 44 -79 54 -99 101 -205 30 -66 91
-246 107 -315 7 -27 16 -66 21 -85 9 -36 21 -113 40 -255 23 -175 4 -498 -40
-675 -5 -19 -14 -57 -20 -85 -64 -271 -232 -604 -424 -840 -303 -372 -751
-654 -1201 -756 -168 -38 -259 -49 -460 -56 -172 -5 -228 -1 -415 28 -586 92
-1141 454 -1476 964 -60 92 -184 320 -184 340 0 3 -9 24 -19 48 -23 49 -70
187 -82 237 -4 19 -19 85 -34 145 -26 110 -26 111 -22 465 l4 355 32 120 c55
206 57 211 100 319 77 190 194 393 319 550 75 95 248 268 347 349 148 120 399
266 560 326 33 13 69 27 80 31 32 13 58 22 90 30 17 5 62 17 100 28 39 11 99
25 135 31 36 7 88 16 115 21 136 25 489 20 650 -9 28 -5 70 -12 95 -16 l46 -7
18 63 c10 35 21 75 26 89 5 14 21 66 35 115 15 50 35 115 45 145 9 30 23 75
30 100 7 25 21 70 30 100 10 30 28 89 40 130 12 41 33 109 46 150 24 75 31 97
54 180 7 25 21 70 30 100 25 77 68 217 81 265 6 22 15 49 19 60 4 11 13 40 20
65 7 25 16 55 21 68 5 13 9 25 9 28 0 3 -249 4 -552 2 l-553 -3 -49 -24 c-132
-66 -203 -190 -194 -338 7 -125 79 -233 193 -291 48 -24 57 -25 285 -30 161
-3 237 -8 242 -16 13 -20 9 -371 -4 -384 -18 -18 -402 -16 -498 3 -101 19
-125 27 -200 64 -180 87 -311 233 -391 436 -36 93 -45 297 -18 415 56 238 245
450 476 532 134 47 147 48 881 48 685 0 693 0 737 -21 81 -38 134 -128 122
-206 -5 -30 -29 -112 -77 -263 -9 -30 -22 -73 -29 -95 -10 -37 -72 -237 -91
-295 -4 -14 -13 -45 -20 -70 -7 -25 -19 -64 -26 -88 -8 -23 -14 -47 -14 -52 0
-7 617 -9 1723 -8 l1722 3 25 51 c14 28 33 70 43 95 11 24 29 67 42 94 32 68
56 128 53 130 -2 1 -30 7 -63 13 -94 18 -314 61 -375 73 -134 26 -196 55 -270
129 -79 79 -109 148 -117 271 -11 162 85 313 245 385 29 13 63 24 77 24 13 0
27 5 30 10 4 7 302 10 860 10 558 0 856 -3 860 -10z"/>
<path d="M8656 10393 c21 -6 49 -12 62 -12 13 -1 51 -7 85 -15 59 -14 113 -24
232 -46 30 -5 81 -15 113 -20 31 -6 79 -16 105 -22 104 -23 356 -9 437 24 67
28 186 98 165 98 -6 0 -286 1 -624 2 -482 2 -605 0 -575 -9z"/>
<path d="M5550 9115 c0 -3 51 -66 113 -141 61 -75 126 -153 142 -174 50 -63
249 -305 255 -310 3 -3 24 -27 45 -55 22 -27 50 -61 61 -75 12 -14 49 -59 83
-100 34 -41 88 -106 120 -145 31 -38 100 -122 152 -185 53 -63 149 -181 215
-261 65 -80 169 -205 229 -278 61 -73 127 -153 147 -179 20 -26 83 -103 140
-172 106 -128 127 -143 172 -122 50 23 235 56 279 50 22 -4 32 14 107 187 9
22 27 61 39 88 11 26 31 68 42 95 12 26 32 71 45 100 13 29 24 54 24 57 0 2
16 39 36 82 20 43 40 87 45 98 4 11 28 64 53 119 26 54 46 100 46 102 0 2 12
29 26 61 14 32 32 72 40 88 7 17 34 77 59 134 25 57 55 124 67 150 11 25 26
60 33 76 7 17 24 55 38 85 54 120 70 157 89 200 11 25 31 69 44 98 13 29 24
54 24 57 0 2 16 39 36 82 20 43 47 101 60 129 13 28 24 54 24 57 0 4 -704 7
-1565 7 -861 0 -1565 -2 -1565 -5z"/>
<path d="M9000 8835 c-5 -14 -19 -45 -30 -70 -11 -25 -30 -66 -41 -92 -12 -27
-32 -72 -45 -101 -13 -29 -24 -54 -24 -57 0 -2 -15 -37 -34 -77 -19 -40 -43
-94 -54 -119 -34 -76 -112 -252 -127 -284 -7 -16 -23 -52 -35 -80 -23 -51 -43
-97 -87 -195 -14 -30 -32 -71 -40 -90 -8 -19 -28 -63 -44 -98 -16 -35 -29 -65
-29 -67 0 -4 -35 -81 -130 -288 -22 -49 -40 -90 -40 -92 0 -2 -13 -32 -29 -67
-16 -35 -39 -85 -51 -113 -12 -27 -29 -64 -36 -81 l-15 -31 89 -90 c49 -49 96
-103 104 -119 9 -16 27 -51 42 -79 14 -27 31 -67 36 -87 l11 -38 87 0 88 0 12
148 c7 81 17 167 22 192 6 25 15 68 21 95 24 122 65 253 121 388 134 326 346
613 623 845 50 41 91 78 93 82 1 4 -78 130 -176 281 -98 151 -197 304 -221
342 -24 37 -46 67 -48 67 -2 0 -8 -11 -13 -25z"/>
<path d="M3915 8189 c-280 -52 -459 -118 -675 -247 -183 -110 -374 -281 -493
-442 -26 -36 -54 -72 -60 -80 -63 -77 -173 -297 -220 -440 -51 -153 -64 -210
-88 -375 -13 -91 -7 -404 10 -500 40 -226 75 -334 177 -540 224 -454 645 -795
1149 -933 145 -40 329 -63 485 -61 142 1 170 4 335 34 359 67 683 242 945 512
172 178 242 275 335 468 71 148 90 195 123 320 48 181 57 254 57 485 0 147 -5
248 -13 290 -50 244 -73 319 -158 495 -148 308 -390 582 -662 748 -99 60 -183
107 -192 107 -9 0 -18 -22 -64 -170 -42 -135 -43 -148 -13 -159 12 -5 63 -36
112 -69 282 -186 489 -455 593 -767 97 -289 104 -568 23 -885 -19 -77 -45
-140 -103 -259 -148 -302 -399 -545 -714 -693 -45 -21 -88 -38 -96 -38 -8 0
-18 -4 -23 -8 -9 -8 -25 -13 -145 -47 -128 -37 -341 -52 -500 -36 -125 12
-317 59 -415 100 -480 203 -810 607 -914 1119 -27 131 -23 424 8 572 119 583
589 1048 1176 1165 17 3 87 12 158 19 104 11 150 11 255 0 70 -7 137 -16 149
-19 19 -6 23 0 43 67 12 40 30 98 40 128 39 120 39 119 -50 133 -78 13 -515
17 -575 6z"/>
<path d="M10569 8196 c-3 -4 -35 -11 -70 -16 -148 -21 -296 -64 -436 -126
l-33 -15 57 -87 c31 -48 71 -111 90 -139 34 -54 42 -60 59 -44 11 11 140 54
204 69 147 34 175 37 350 37 174 0 246 -8 355 -37 391 -105 717 -346 916 -678
25 -41 52 -91 61 -110 47 -105 58 -130 75 -185 50 -154 83 -343 83 -472 0 -81
-31 -302 -52 -373 -48 -157 -99 -276 -167 -390 -256 -426 -710 -696 -1204
-717 -139 -5 -285 6 -372 28 -97 25 -124 33 -180 51 -33 10 -103 40 -155 65
-254 124 -443 288 -595 517 -86 130 -118 194 -175 356 l-26 75 -164 0 -165 0
3 -25 c3 -29 16 -79 44 -165 26 -81 27 -84 93 -219 136 -282 338 -514 605
-698 97 -67 350 -198 381 -198 10 0 21 -4 24 -10 3 -5 15 -10 26 -10 10 0 27
-4 37 -9 17 -10 139 -40 242 -60 75 -15 314 -33 353 -27 18 3 75 8 127 11 52
4 115 11 140 16 25 5 68 14 95 20 28 6 61 14 75 19 14 4 45 13 70 20 74 20
102 32 240 99 141 69 184 94 287 171 166 122 327 293 436 461 49 77 127 221
148 277 11 27 26 64 38 95 23 54 68 225 92 347 18 87 18 463 0 550 -25 129
-73 306 -92 342 -5 10 -9 23 -9 29 0 14 -108 235 -146 299 -93 159 -291 378
-450 498 -228 171 -502 290 -794 344 -62 11 -512 23 -521 14z"/>
<path d="M9639 7794 c-115 -92 -321 -325 -379 -429 -12 -22 -30 -51 -40 -65
-37 -54 -150 -307 -150 -337 0 -7 -4 -21 -10 -31 -27 -49 -80 -338 -80 -435
l0 -77 162 2 161 3 4 75 c6 116 43 290 83 395 88 230 222 433 389 586 l81 75
-84 129 c-45 71 -88 131 -93 132 -6 2 -26 -8 -44 -23z"/>
<path d="M4015 7460 c-11 -5 -34 -9 -52 -9 -18 -1 -42 -5 -55 -10 -13 -5 -43
-15 -68 -22 -63 -19 -211 -92 -284 -141 -188 -128 -349 -345 -416 -563 -36
-117 -38 -126 -50 -239 -9 -82 -9 -131 -1 -205 13 -108 29 -187 42 -213 5 -10
9 -25 9 -33 0 -8 4 -23 9 -33 4 -9 25 -53 46 -97 72 -154 193 -303 329 -405
117 -88 290 -165 441 -198 160 -35 405 -19 571 36 352 117 618 407 719 782 3
14 13 63 20 110 55 336 -76 709 -334 953 -60 57 -180 147 -195 147 -3 0 -15
-33 -26 -72 -27 -93 -35 -119 -59 -193 -10 -33 -31 -100 -45 -150 -15 -49 -41
-133 -57 -185 -16 -52 -34 -113 -40 -135 -7 -22 -20 -67 -31 -100 -10 -33 -22
-73 -27 -90 -50 -164 -75 -236 -87 -245 -10 -9 -39 -4 -126 24 -62 20 -131 41
-153 47 -64 18 -85 28 -91 43 -3 8 10 66 30 128 20 62 41 131 47 153 7 22 20
65 29 95 10 30 28 89 40 130 12 41 32 107 45 145 12 39 28 90 35 115 7 25 16
56 20 70 4 14 24 79 45 145 20 66 40 130 46 143 14 35 11 69 -7 76 -24 9 -296
6 -319 -4z"/>
<path d="M10649 7466 c-3 -3 -32 -10 -65 -16 -103 -17 -123 -22 -133 -34 -7
-9 10 -43 58 -117 37 -57 168 -259 291 -449 123 -190 251 -388 285 -440 84
-129 85 -131 85 -195 0 -83 -33 -139 -110 -185 -21 -13 -115 -15 -647 -18
-506 -2 -623 -5 -623 -16 0 -22 86 -181 130 -241 110 -150 295 -293 458 -356
12 -5 32 -13 45 -18 105 -41 223 -61 365 -61 196 0 324 31 507 123 248 124
464 392 533 662 54 212 50 423 -13 625 -22 71 -93 213 -143 287 -40 59 -164
186 -237 243 -104 82 -283 162 -430 192 -55 11 -347 23 -356 14z"/>
<path d="M10012 7146 c-86 -92 -146 -181 -196 -288 -61 -131 -106 -298 -106
-396 l0 -42 440 -2 c242 -2 440 0 440 4 0 8 -65 109 -189 298 -31 46 -63 97
-71 111 -33 59 -245 379 -251 379 -4 0 -34 -29 -67 -64z"/>
<path d="M7660 6554 c0 -2 23 -34 51 -69 l51 -65 96 0 96 0 -35 36 c-43 45
-139 90 -206 97 -29 3 -53 4 -53 1z"/>
<path d="M7333 6274 c-3 -8 -3 -48 -1 -87 11 -163 123 -287 286 -315 60 -11
154 3 212 31 38 18 110 83 110 98 0 5 -64 9 -142 9 -79 0 -160 5 -181 11 -50
13 -93 53 -189 171 -43 54 -81 98 -84 98 -2 0 -7 -7 -11 -16z"/>
</g>
</svg>
