<!DOCTYPE svg PUBLIC "-//W3C//DTD SVG 20010904//EN"
 "http://www.w3.org/TR/2001/REC-SVG-20010904/DTD/svg10.dtd">
 <svg version="1.0" xmlns="http://www.w3.org/2000/svg" width="80" height="80"  viewBox="0 0 1500.000000 1500.000000" preserveAspectRatio="xMidYMid meet">
<g class="svg_teste" transform="translate(0.000000,1500.000000) scale(0.100000,-0.100000)"
fill="#000000" stroke="none">
<path d="M7210 14990 c-594 -33 -1026 -95 -1530 -220 -835 -207 -1615 -552
-2331 -1031 -442 -294 -746 -545 -1145 -944 -267 -266 -428 -448 -627 -704
-1324 -1707 -1845 -3892 -1431 -6006 250 -1275 814 -2438 1673 -3444 147 -173
575 -603 749 -754 1264 -1100 2800 -1730 4477 -1837 376 -24 937 -7 1325 40
1504 183 2889 800 4032 1797 171 148 514 490 668 663 899 1014 1496 2218 1754
3535 138 707 173 1459 101 2180 -145 1443 -710 2813 -1629 3950 -343 424 -798
869 -1235 1209 -991 769 -2166 1279 -3401 1476 -454 72 -1073 111 -1450 90z
m805 -2468 c22 -6 72 -15 110 -22 213 -34 468 -107 710 -202 124 -49 363 -164
451 -218 36 -22 68 -40 70 -40 9 0 251 -164 329 -224 268 -201 530 -463 731
-731 350 -465 578 -984 682 -1555 27 -146 32 -178 32 -207 0 -17 4 -53 9 -80
6 -26 15 -93 21 -148 6 -55 15 -131 20 -170 5 -38 14 -108 20 -155 6 -47 15
-116 20 -155 5 -38 14 -110 20 -160 6 -49 15 -121 20 -160 5 -38 14 -110 20
-160 6 -49 15 -121 20 -160 5 -38 14 -110 20 -160 6 -49 15 -121 20 -160 5
-38 14 -110 20 -160 6 -49 15 -119 20 -155 5 -36 14 -105 20 -155 6 -49 35
-288 65 -529 30 -242 55 -455 55 -473 0 -61 -81 -323 -170 -548 -38 -96 -164
-361 -218 -456 -267 -472 -573 -842 -982 -1185 -139 -116 -299 -233 -430 -314
-368 -228 -725 -387 -1095 -489 -213 -59 -344 -86 -580 -120 -302 -44 -788
-44 -1090 0 -214 31 -442 78 -575 119 -14 4 -45 13 -70 20 -192 54 -450 157
-670 266 -140 70 -402 225 -500 297 -36 26 -96 70 -135 98 -38 28 -124 97
-191 154 -355 303 -652 654 -874 1030 -91 155 -145 257 -223 425 -81 173 -185
464 -222 620 l-17 75 46 375 c25 206 50 410 56 453 5 42 14 113 20 157 6 44
15 116 20 160 5 44 14 116 20 160 5 44 14 116 20 160 10 77 17 139 40 328 6
48 15 119 20 157 5 39 14 111 20 160 6 50 15 122 20 160 5 39 14 111 20 160 6
50 15 122 20 160 5 39 14 111 20 160 6 50 15 122 20 160 5 39 14 111 20 160
31 254 49 355 106 580 80 316 241 699 404 960 14 22 32 52 40 67 26 47 141
207 232 321 144 182 329 371 524 537 28 25 136 107 244 187 92 68 312 199 461
273 220 111 393 176 714 269 54 16 119 30 285 61 56 11 173 29 220 34 77 8
887 -2 925 -12z m-4631 -7651 c38 -73 191 -315 260 -411 298 -417 628 -757
1021 -1052 103 -77 399 -278 411 -278 3 0 18 -8 32 -18 88 -61 425 -227 614
-303 209 -83 433 -158 568 -189 19 -4 60 -15 90 -23 30 -8 82 -20 115 -26 33
-7 78 -16 100 -21 74 -16 207 -37 380 -60 44 -5 118 -10 165 -11 47 0 94 -4
105 -9 11 -5 -590 -8 -1410 -7 -1141 2 -1438 5 -1470 15 -22 8 -56 18 -75 23
-76 22 -150 53 -265 110 -180 90 -328 205 -453 354 -205 244 -319 508 -352
820 -5 50 -13 107 -16 128 -4 22 -2 49 4 60 6 12 13 63 16 112 3 50 10 124 16
165 5 41 14 111 20 155 5 44 14 118 20 165 10 78 18 141 35 290 9 78 12 85 29
70 8 -6 26 -33 40 -59z m8300 17 c4 -29 11 -84 16 -123 5 -38 14 -108 20 -155
6 -47 15 -123 21 -170 6 -47 15 -119 20 -160 13 -98 29 -266 30 -310 1 -47
-18 -232 -30 -295 -27 -141 -63 -251 -131 -392 -140 -294 -404 -558 -695 -693
-116 -55 -118 -55 -195 -79 -36 -11 -83 -25 -105 -33 -32 -10 -328 -13 -1470
-15 -820 -1 -1421 2 -1410 7 11 5 60 9 108 9 49 1 118 5 155 10 37 6 105 15
152 21 89 12 134 20 265 46 149 30 194 41 370 89 238 64 639 223 860 340 654
347 1179 792 1607 1360 108 144 216 307 306 463 42 72 82 132 88 132 6 0 14
-24 18 -52z"/>
<path d="M7350 11944 c-8 -2 -69 -8 -135 -14 -155 -14 -198 -21 -390 -60 -210
-43 -468 -137 -700 -255 -642 -326 -1142 -859 -1424 -1517 -78 -181 -142 -384
-180 -573 -42 -203 -47 -263 -27 -309 9 -20 23 -53 32 -73 258 -605 739 -1148
1326 -1496 158 -94 558 -277 605 -277 7 0 21 -4 31 -9 9 -5 37 -15 62 -22 25
-7 51 -17 58 -22 9 -7 12 -128 12 -541 0 -530 4 -600 38 -726 36 -133 120
-270 235 -383 44 -43 78 -80 76 -82 -2 -2 -70 -70 -150 -152 -150 -153 -168
-177 -190 -262 -10 -40 -10 -60 0 -107 25 -110 81 -178 178 -214 115 -43 221
-17 324 80 35 33 67 60 71 60 5 0 8 -112 8 -249 0 -243 3 -274 35 -346 19 -42
78 -101 128 -127 60 -32 194 -32 254 0 50 26 109 85 128 127 32 72 35 103 35
346 0 138 4 249 9 249 5 0 37 -27 71 -60 99 -96 208 -123 322 -80 69 26 119
67 145 122 55 112 56 163 6 278 -9 19 -83 103 -166 187 l-150 151 80 79 c137
135 208 263 255 463 7 27 13 269 17 614 5 491 8 570 21 577 8 4 51 19 95 32
205 63 524 211 735 342 317 197 649 505 876 811 66 90 184 268 184 279 0 4 9
19 19 34 22 31 131 240 151 291 7 19 24 59 38 89 33 73 27 125 -44 426 -9 39
-22 90 -30 115 -8 25 -19 61 -25 80 -6 19 -14 44 -19 55 -4 11 -27 70 -51 130
-50 129 -162 352 -243 482 -215 348 -541 686 -891 924 -166 114 -345 213 -505
282 -19 8 -56 24 -81 35 -46 21 -239 88 -294 102 -111 30 -147 38 -200 49 -33
7 -78 16 -100 21 -160 34 -587 62 -665 44z m140 -4749 c63 0 158 2 210 5 l95
5 3 -486 c2 -467 1 -489 -18 -533 -30 -70 -76 -121 -140 -155 -51 -27 -67 -31
-139 -31 -67 0 -90 4 -130 24 -67 34 -118 87 -147 152 l-24 55 0 483 c0 265 3
486 7 489 3 4 43 4 87 0 45 -5 133 -8 196 -8z"/>
</g>
</svg>
