<!DOCTYPE svg PUBLIC "-//W3C//DTD SVG 20010904//EN"
 "http://www.w3.org/TR/2001/REC-SVG-20010904/DTD/svg10.dtd">
 <svg version="1.0" xmlns="http://www.w3.org/2000/svg" width="80" height="80"  viewBox="0 0 1500.000000 1500.000000" preserveAspectRatio="xMidYMid meet">
<g class="svg_teste" transform="translate(0.000000,1500.000000) scale(0.100000,-0.100000)"
fill="#000000" stroke="none">
<path d="M7164 14989 c-1598 -67 -3131 -646 -4379 -1653 -475 -383 -917 -843
-1300 -1351 -106 -141 -327 -471 -422 -630 -919 -1534 -1255 -3358 -947 -5135
228 -1320 813 -2553 1700 -3585 356 -414 745 -778 1199 -1120 141 -106 470
-327 630 -422 1850 -1108 4102 -1360 6165 -691 1160 376 2260 1072 3099 1961
384 408 726 857 998 1312 920 1535 1255 3357 947 5135 -228 1320 -813 2553
-1700 3585 -783 912 -1786 1628 -2895 2069 -810 321 -1593 487 -2484 526 -253
11 -343 11 -611 -1z m607 -2796 c119 -42 218 -102 306 -187 124 -117 203 -246
249 -406 35 -125 21 -412 -26 -510 -79 -166 -126 -235 -217 -322 -72 -68 -159
-126 -247 -163 l-66 -28 0 -404 0 -403 1515 0 1515 0 5 -22 c3 -13 4 -283 3
-601 l-3 -577 583 0 582 0 0 -1245 0 -1245 -580 -2 -580 -3 -3 -1390 -2 -1390
-3305 0 -3305 0 -2 1390 -3 1390 -580 3 -580 2 0 1245 0 1245 583 0 582 0 -3
577 c-1 318 0 588 3 601 l5 22 1515 0 1515 0 0 403 0 404 -66 28 c-88 37 -175
95 -247 163 -91 87 -138 156 -217 322 -47 99 -61 384 -26 510 73 257 256 467
496 569 126 54 163 60 345 58 161 -3 175 -5 256 -34z"/>
<path d="M6235 8673 c-113 -25 -191 -48 -234 -68 -28 -14 -53 -25 -56 -25 -21
0 -164 -107 -226 -169 -119 -119 -194 -248 -240 -416 -18 -66 -22 -106 -22
-225 0 -142 2 -153 44 -295 31 -109 133 -268 228 -358 189 -178 427 -267 676
-253 162 9 267 38 401 113 418 232 582 752 375 1187 -151 317 -476 519 -829
515 -54 -1 -106 -3 -117 -6z m240 -516 c195 -61 322 -261 286 -449 -27 -136
-104 -239 -226 -299 -60 -29 -82 -34 -156 -37 -134 -6 -226 33 -317 133 -72
79 -97 146 -97 265 0 119 25 186 96 265 88 96 172 134 294 134 44 1 98 -5 120
-12z"/>
<path d="M8490 8669 c-213 -44 -360 -121 -497 -260 -177 -180 -263 -391 -263
-644 0 -418 284 -775 700 -881 94 -24 263 -29 365 -10 278 51 511 221 646 471
40 74 53 109 86 225 21 77 21 325 0 400 -9 30 -21 73 -28 95 -6 22 -27 71 -45
109 -109 219 -306 389 -544 466 -115 37 -313 50 -420 29z m322 -537 c85 -42
167 -128 199 -209 86 -222 -27 -461 -255 -538 -35 -12 -74 -16 -135 -13 -74 3
-96 8 -156 37 -122 60 -199 163 -226 299 -35 185 87 382 281 449 20 7 76 11
130 10 86 -2 102 -5 162 -35z"/>
<path d="M5490 5321 c0 -462 -3 -846 -6 -855 -6 -15 176 -16 2016 -16 1840 0
2022 1 2016 16 -3 9 -6 393 -6 855 l0 839 -2010 0 -2010 0 0 -839z m1160 -15
c0 -304 -2 -345 -16 -350 -9 -3 -152 -6 -318 -6 -222 0 -305 3 -314 12 -9 9
-12 99 -12 343 0 183 3 335 7 338 3 4 152 7 330 7 l323 0 0 -344z m1190 0 c0
-304 -2 -345 -16 -350 -20 -8 -628 -8 -648 0 -14 5 -16 46 -16 350 l0 344 340
0 340 0 0 -344z m1168 5 c2 -238 -1 -338 -9 -347 -9 -11 -70 -14 -314 -14
-167 0 -310 3 -319 6 -14 5 -16 46 -16 350 l0 344 328 -2 327 -3 3 -334z"/>
</g>
</svg>
