<!DOCTYPE svg PUBLIC "-//W3C//DTD SVG 20010904//EN"
 "http://www.w3.org/TR/2001/REC-SVG-20010904/DTD/svg10.dtd">
 <svg version="1.0" xmlns="http://www.w3.org/2000/svg" width="80" height="80"  viewBox="0 0 1500.000000 1500.000000" preserveAspectRatio="xMidYMid meet">
<g class="svg_teste" transform="translate(0.000000,1500.000000) scale(0.100000,-0.100000)"
fill="#000000" stroke="none">
<path d="M7310 14990 c-30 -4 -104 -8 -165 -9 -169 -2 -614 -46 -835 -82 -112
-19 -372 -69 -445 -85 -59 -14 -130 -32 -395 -100 -57 -14 -233 -68 -343 -105
-891 -298 -1714 -759 -2437 -1367 -1119 -939 -1945 -2196 -2353 -3577 -169
-572 -253 -1040 -299 -1665 -25 -348 -10 -975 33 -1320 48 -388 82 -580 164
-923 254 -1064 751 -2067 1454 -2937 297 -367 710 -782 1078 -1083 612 -499
1323 -912 2053 -1192 240 -92 758 -252 930 -288 14 -3 68 -15 120 -27 52 -11
118 -25 145 -30 28 -5 100 -18 160 -30 661 -121 1418 -148 2110 -74 223 23
526 70 690 105 50 11 112 24 140 30 27 5 121 27 209 49 743 187 1462 492 2111
898 1017 634 1848 1480 2470 2513 47 77 85 141 85 143 0 1 28 52 61 112 123
220 287 567 383 814 20 52 43 111 51 130 173 440 341 1108 410 1632 92 701 84
1467 -21 2143 -189 1213 -672 2362 -1403 3335 -349 465 -771 907 -1221 1281
-1233 1023 -2776 1622 -4385 1700 -316 15 -494 18 -555 9z m1374 -3708 c127
-40 227 -99 328 -191 118 -109 191 -241 262 -476 65 -214 104 -299 170 -373
43 -48 56 -74 56 -112 0 -46 -20 -77 -100 -155 -86 -84 -120 -132 -147 -205
-72 -195 -7 -414 162 -542 62 -47 139 -76 232 -87 106 -13 163 -63 163 -141 0
-99 66 -244 144 -318 56 -54 141 -101 219 -122 31 -8 57 -24 77 -47 34 -38 37
-49 43 -153 16 -253 190 -470 438 -547 75 -23 266 -23 334 1 95 32 178 81 244
142 116 109 173 231 190 408 11 127 31 163 105 189 26 9 66 24 91 33 67 23
155 93 197 155 46 67 88 180 88 237 0 61 32 117 80 142 21 11 48 20 59 20 39
0 100 -32 125 -65 l26 -34 0 -2332 c0 -1493 -4 -2344 -10 -2363 -73 -230 -125
-322 -245 -434 -103 -97 -222 -164 -350 -198 -68 -18 -195 -19 -4175 -19
l-4105 0 -90 29 c-49 16 -106 38 -125 49 -19 11 -53 30 -74 41 -21 12 -70 50
-108 85 -151 140 -239 311 -259 506 -6 65 -9 951 -7 2565 l3 2465 22 69 c84
261 252 447 488 540 126 50 187 56 552 56 324 0 337 -1 370 -21 18 -12 42 -38
53 -60 20 -38 20 -72 20 -2729 0 -2271 2 -2696 14 -2724 36 -85 163 -109 233
-44 57 53 53 -134 53 2786 l0 2695 26 34 c47 62 51 63 387 63 167 0 328 5 358
10 64 12 160 58 212 101 48 39 107 128 134 199 11 30 46 134 78 230 65 200
104 280 181 374 119 145 276 241 462 282 44 9 299 12 1152 10 l1095 -1 69 -23z
m2556 -1042 c351 -71 634 -208 895 -436 120 -105 140 -134 139 -201 -1 -44 -7
-61 -30 -90 -53 -64 -130 -89 -198 -63 -14 5 -67 46 -117 90 -230 203 -491
328 -781 374 -139 23 -384 21 -523 -3 -281 -49 -547 -179 -763 -375 -92 -83
-132 -101 -199 -92 -58 8 -96 36 -122 89 -50 102 -18 160 173 316 141 115 321
222 476 285 25 9 54 21 65 26 97 39 304 87 435 100 142 14 430 4 550 -20z
m-151 -819 c141 -23 323 -107 447 -205 117 -92 139 -124 139 -201 0 -52 -4
-67 -27 -98 -35 -45 -79 -67 -135 -67 -54 0 -69 8 -149 75 -87 74 -182 125
-288 153 -150 39 -344 23 -476 -41 -58 -27 -152 -90 -170 -113 -8 -9 -35 -30
-59 -46 -107 -68 -238 -7 -257 119 -12 78 38 144 191 255 110 80 275 147 410
168 38 6 72 13 75 16 8 9 218 -2 299 -15z m-75 -742 c56 -26 118 -79 147 -126
35 -56 50 -152 34 -218 -25 -110 -112 -202 -221 -233 -133 -38 -285 32 -352
163 -35 70 -37 188 -4 258 28 60 93 126 152 154 62 30 182 32 244 2z"/>
<path d="M7117 10493 c-39 -6 -95 -65 -103 -108 -14 -75 16 -138 80 -169 29
-14 83 -16 403 -16 330 0 372 2 403 18 99 49 109 189 18 254 l-33 23 -370 1
c-203 1 -383 -1 -398 -3z"/>
<path d="M7295 9099 c-92 -8 -266 -36 -310 -49 -16 -5 -64 -18 -105 -30 -195
-55 -430 -165 -601 -280 -311 -209 -566 -493 -728 -810 -55 -108 -121 -263
-140 -330 -8 -25 -17 -56 -21 -70 -4 -14 -13 -44 -19 -67 -6 -24 -15 -60 -21
-80 -58 -221 -58 -714 -1 -933 6 -19 17 -64 27 -100 120 -466 420 -908 806
-1193 190 -140 360 -230 583 -310 141 -51 232 -74 435 -108 98 -17 502 -18
588 -1 34 7 90 17 125 23 119 22 308 76 392 114 17 7 62 27 100 43 266 116
556 333 751 563 346 408 533 911 534 1434 0 109 -17 303 -34 380 -2 11 -10 47
-17 80 -17 85 -43 180 -68 250 -12 33 -29 78 -36 101 -22 61 -108 233 -161
321 -273 449 -694 786 -1184 946 -159 53 -195 62 -315 82 -210 34 -400 42
-580 24z m392 -299 c240 -31 407 -77 587 -160 581 -267 980 -787 1092 -1425
25 -139 25 -461 0 -600 -45 -257 -123 -468 -251 -678 -95 -154 -174 -254 -302
-378 -224 -217 -447 -352 -747 -450 -303 -100 -668 -116 -989 -44 -267 60
-572 211 -787 390 -354 295 -577 682 -667 1155 -22 119 -22 491 0 610 68 358
200 643 421 907 357 429 878 676 1438 682 70 0 162 -4 205 -9z"/>
<path d="M6765 8013 c-128 -68 -333 -288 -424 -455 -57 -104 -34 -205 56 -243
45 -19 71 -19 117 0 37 16 43 24 139 170 58 90 154 191 241 254 76 56 104 114
86 175 -28 97 -131 144 -215 99z"/>
</g>
</svg>
