<!DOCTYPE svg PUBLIC "-//W3C//DTD SVG 20010904//EN"
 "http://www.w3.org/TR/2001/REC-SVG-20010904/DTD/svg10.dtd">
 <svg version="1.0" xmlns="http://www.w3.org/2000/svg" width="80" height="80"  viewBox="0 0 1500.000000 1500.000000" preserveAspectRatio="xMidYMid meet">
<g class="svg_teste" transform="translate(0.000000,1500.000000) scale(0.100000,-0.100000)"
fill="#000000" stroke="none">
<path d="M7325 14940 c-22 -5 -76 -9 -120 -9 -91 -1 -416 -25 -550 -41 -425
-51 -856 -136 -1200 -237 -66 -19 -136 -39 -155 -45 -88 -25 -373 -124 -505
-176 -216 -84 -317 -129 -550 -242 -1171 -569 -2171 -1436 -2908 -2521 -257
-380 -530 -880 -682 -1252 -14 -34 -30 -71 -35 -82 -58 -127 -181 -474 -240
-675 -12 -41 -26 -86 -31 -100 -26 -72 -119 -467 -154 -655 -9 -49 -20 -108
-25 -130 -7 -35 -28 -179 -60 -422 -5 -39 -17 -179 -25 -310 -8 -131 -20 -292
-25 -358 -13 -150 -13 -257 0 -360 5 -44 14 -172 20 -285 7 -113 16 -241 21
-285 5 -44 14 -120 19 -170 29 -266 111 -693 187 -975 256 -955 673 -1809
1264 -2590 335 -443 749 -875 1189 -1240 309 -257 726 -545 1055 -730 172 -97
244 -135 420 -220 904 -442 1836 -683 2870 -743 421 -24 951 -3 1355 54 308
43 391 58 675 120 612 133 1266 376 1850 687 1296 691 2377 1772 3067 3067 66
125 198 391 198 400 0 2 16 39 36 82 129 278 318 811 383 1078 5 22 18 74 29
115 104 405 187 936 207 1325 3 55 10 186 16 290 12 201 4 447 -27 835 -96
1190 -489 2348 -1142 3370 -121 189 -116 182 -303 435 -967 1304 -2370 2273
-3919 2709 -394 110 -738 178 -1190 235 -289 36 -933 68 -1015 51z m2798
-2591 c111 -35 211 -104 293 -204 53 -66 77 -108 106 -191 l23 -69 0 -4385 0
-4385 -23 -68 c-62 -182 -188 -312 -377 -391 l-50 -21 -2573 -3 -2573 -2 -74
25 c-191 64 -337 213 -401 410 -19 59 -19 132 -19 4435 0 4303 0 4376 19 4435
64 196 209 345 399 410 l72 24 2556 1 2556 0 66 -21z"/>
<path d="M5080 8105 l0 -3035 2423 2 2422 3 3 3033 2 3032 -2425 0 -2425 0 0
-3035z"/>
<path d="M7380 4434 c-175 -38 -332 -158 -409 -315 -42 -86 -71 -197 -71 -272
0 -104 52 -262 115 -347 78 -107 206 -196 330 -231 66 -18 266 -18 320 0 319
110 490 401 419 714 -46 203 -209 380 -399 435 -121 35 -199 39 -305 16z"/>
</g>
</svg>
