<!DOCTYPE svg PUBLIC "-//W3C//DTD SVG 20010904//EN"
 "http://www.w3.org/TR/2001/REC-SVG-20010904/DTD/svg10.dtd">
 <svg version="1.0" xmlns="http://www.w3.org/2000/svg" width="80" height="80"  viewBox="0 0 1500.000000 1500.000000" preserveAspectRatio="xMidYMid meet">
<g class="svg_teste" transform="translate(0.000000,1500.000000) scale(0.100000,-0.100000)"
fill="#000000" stroke="none">
<path d="M7245 14963 c-896 -27 -1805 -222 -2640 -568 -212 -87 -639 -298
-845 -417 -1432 -823 -2552 -2095 -3187 -3618 -566 -1357 -715 -2890 -422
-4344 488 -2429 2164 -4467 4457 -5422 1233 -513 2599 -685 3937 -493 2598
371 4815 2093 5832 4529 565 1355 715 2889 422 4344 -425 2115 -1757 3953
-3639 5021 -202 115 -613 317 -815 400 -828 343 -1668 526 -2585 565 -212 9
-299 10 -515 3z m500 -3569 c317 -41 548 -116 809 -263 163 -92 407 -290 452
-367 53 -90 16 -207 -80 -252 -83 -39 -144 -23 -235 62 -127 119 -254 207
-406 284 -543 272 -1182 234 -1685 -101 -89 -59 -143 -102 -227 -179 -98 -91
-162 -108 -244 -65 -96 51 -128 161 -73 254 57 98 355 323 559 422 222 108
405 164 630 195 61 9 121 17 135 19 63 10 257 6 365 -9z m-100 -909 c217 -17
445 -116 628 -272 84 -71 109 -113 110 -182 0 -58 -17 -103 -49 -132 -80 -70
-201 -63 -274 16 -50 54 -196 143 -274 167 -105 32 -146 38 -256 38 -110 0
-151 -6 -256 -38 -81 -25 -196 -95 -275 -167 -54 -50 -104 -69 -170 -63 -92 9
-153 80 -153 178 0 74 20 107 107 180 153 129 309 211 482 252 55 13 255 36
280 32 11 -2 56 -6 100 -9z m20 -826 c140 -66 221 -220 191 -364 -18 -85 -41
-127 -97 -180 -69 -65 -142 -95 -227 -95 -165 1 -295 108 -333 274 -36 163 91
352 260 387 55 12 158 1 206 -22z m1035 -1413 c187 -40 335 -122 466 -257 125
-130 159 -198 314 -624 40 -110 36 -163 -17 -225 -65 -76 103 -70 -1963 -70
-2066 0 -1898 -6 -1963 70 -53 63 -57 115 -16 228 10 28 28 78 40 110 12 31
25 66 29 77 4 11 27 69 50 128 52 132 101 210 194 306 127 132 276 215 456
256 85 19 2320 20 2410 1z m-4492 -601 c53 -35 82 -90 82 -155 0 -57 -10 -81
-49 -123 -54 -59 -17 -57 -958 -57 -843 0 -865 0 -903 20 -21 11 -50 35 -64
53 -23 30 -26 44 -26 110 0 67 3 79 27 108 15 17 41 40 58 50 29 18 71 19 913
19 l882 0 38 -25z m8411 11 c15 -8 42 -31 60 -51 29 -33 31 -41 31 -112 0 -66
-3 -80 -26 -110 -14 -18 -43 -42 -64 -53 -38 -20 -60 -20 -903 -20 -941 0
-904 -2 -958 57 -40 42 -49 66 -49 125 0 63 28 115 80 152 l35 25 883 1 c752
0 887 -2 911 -14z m-9240 -660 c21 -14 49 -42 62 -63 23 -36 24 -49 29 -243
l5 -205 720 -5 720 -5 32 -23 c59 -42 78 -79 78 -153 0 -54 -5 -72 -27 -106
-54 -82 -12 -78 -815 -81 l-713 -2 0 -77 c0 -93 -15 -144 -53 -184 -93 -98
-240 -70 -298 56 -17 37 -19 73 -19 490 0 279 4 464 10 487 33 118 171 176
269 114z m8423 1 c46 -28 73 -62 87 -112 9 -29 11 -170 9 -495 -3 -432 -4
-457 -23 -494 -11 -22 -37 -54 -58 -70 -34 -27 -47 -31 -101 -31 -51 0 -70 5
-103 27 -61 40 -83 94 -83 201 l0 87 -699 0 c-501 0 -708 3 -732 12 -82 27
-128 91 -129 178 0 56 25 105 74 145 l38 30 721 5 722 5 5 205 c5 194 6 207
29 243 52 84 162 114 243 64z m-2292 -267 c43 -12 103 -72 119 -119 17 -53 15
-694 -3 -796 -45 -247 -164 -438 -361 -580 -106 -76 -220 -123 -373 -154 -75
-15 -2709 -15 -2784 0 -153 31 -267 78 -373 154 -197 142 -316 333 -361 580
-18 102 -20 743 -3 796 15 44 76 107 114 118 43 13 3980 14 4025 1z m-4195
-1568 c86 -60 107 -167 48 -252 -17 -25 -47 -61 -67 -79 l-36 -35 0 -526 c0
-525 0 -526 -22 -570 -27 -54 -89 -99 -145 -107 -73 -10 -168 61 -191 143 -17
59 -17 1130 0 1188 15 54 205 249 258 265 50 15 109 5 155 -27z m4560 8 c18
-11 72 -61 121 -112 64 -67 93 -105 102 -134 9 -30 12 -189 12 -596 0 -606 0
-611 -58 -671 -35 -37 -93 -67 -129 -67 -43 0 -113 40 -147 83 l-31 39 -3 541
-3 542 -43 45 c-87 91 -107 142 -86 221 14 51 73 113 123 128 42 13 103 5 142
-19z m-1331 -458 c22 -15 50 -47 63 -71 45 -86 26 -148 -84 -273 -164 -186
-371 -325 -588 -396 -174 -56 -242 -67 -435 -67 -165 0 -217 6 -335 37 -272
72 -471 194 -672 411 -89 95 -123 154 -123 208 0 51 39 119 85 151 l40 27
1005 0 1005 0 39 -27z"/>
</g>
</svg>
