<!DOCTYPE svg PUBLIC "-//W3C//DTD SVG 20010904//EN"
 "http://www.w3.org/TR/2001/REC-SVG-20010904/DTD/svg10.dtd">
 <svg version="1.0" xmlns="http://www.w3.org/2000/svg" width="80" height="80"  viewBox="0 0 1500.000000 1500.000000" preserveAspectRatio="xMidYMid meet">
<g class="svg_teste" transform="translate(0.000000,1500.000000) scale(0.100000,-0.100000)"
fill="#000000" stroke="none">
<path d="M7265 14964 c-204 -9 -446 -26 -610 -45 -1416 -157 -2754 -718 -3870
-1621 -370 -300 -803 -734 -1101 -1103 -975 -1208 -1533 -2635 -1645 -4205
-15 -212 -15 -768 0 -980 122 -1707 778 -3260 1904 -4505 1319 -1459 3087
-2317 5062 -2456 219 -16 751 -16 970 0 1346 95 2579 514 3675 1251 398 268
715 527 1059 864 537 528 966 1090 1319 1728 1014 1833 1207 4029 528 6023
-278 819 -707 1594 -1260 2280 -298 369 -731 803 -1101 1103 -1204 975 -2674
1552 -4205 1651 -173 11 -602 20 -725 15z m3943 -2774 c35 -16 84 -51 112 -80
51 -50 110 -156 110 -197 0 -12 5 -25 10 -28 7 -4 10 -1271 10 -3770 0 -3422
-1 -3763 -16 -3769 -21 -8 -7847 -8 -7868 0 -15 6 -16 347 -16 3765 0 2228 4
3766 9 3777 5 9 15 37 21 62 26 98 114 195 220 244 l55 26 3645 0 3645 0 63
-30z m226 -8226 c14 -5 16 -52 16 -424 0 -269 -4 -421 -10 -425 -5 -3 -10 -16
-10 -28 0 -41 -59 -147 -110 -197 -28 -29 -77 -64 -112 -80 l-63 -30 -3645 0
-3645 0 -63 30 c-35 16 -84 51 -112 80 -51 50 -110 156 -110 197 0 12 -4 25
-10 28 -16 10 -13 842 3 848 18 8 7852 8 7871 1z"/>
<path d="M5006 11400 c-99 -38 -173 -107 -218 -206 -19 -41 -23 -66 -23 -154
0 -99 2 -110 32 -171 62 -126 176 -200 316 -207 235 -12 407 148 407 378 0
170 -93 303 -251 360 -70 26 -194 26 -263 0z"/>
<path d="M6584 11402 c-161 -57 -266 -221 -251 -392 7 -81 22 -121 65 -184 82
-118 189 -171 335 -165 106 5 194 45 261 120 73 81 98 149 98 260 -1 78 -6
103 -38 175 -25 58 -102 132 -172 166 -58 29 -77 33 -157 35 -66 2 -104 -2
-141 -15z"/>
<path d="M8690 11040 l0 -380 775 0 775 0 0 380 0 380 -775 0 -775 0 0 -380z"/>
<path d="M7305 9844 c-448 -42 -851 -195 -1217 -464 -206 -151 -451 -420 -594
-653 -143 -234 -256 -524 -302 -782 -6 -33 -17 -91 -24 -130 -8 -44 -13 -160
-13 -315 0 -155 5 -271 13 -315 7 -38 18 -97 24 -130 10 -58 21 -102 53 -220
56 -207 189 -482 333 -690 275 -396 712 -721 1170 -870 179 -59 208 -66 437
-107 93 -17 525 -17 625 0 249 41 420 89 610 169 704 299 1226 936 1380 1683
37 179 44 252 44 485 0 150 -4 266 -12 310 -21 117 -33 177 -49 240 -8 33 -19
76 -23 96 -47 186 -183 475 -319 674 -309 453 -784 796 -1296 935 -100 27
-165 42 -320 70 -59 11 -443 22 -520 14z m483 -789 c307 -66 535 -177 755
-370 84 -73 217 -219 217 -237 0 -5 -44 -51 -99 -103 -241 -232 -361 -512
-361 -845 0 -249 63 -453 203 -665 22 -33 89 -109 149 -169 106 -106 109 -110
96 -135 -19 -36 -212 -229 -284 -284 -160 -121 -369 -224 -552 -273 -160 -42
-206 -48 -412 -48 -223 0 -321 14 -485 69 -559 188 -948 628 -1071 1215 -28
129 -25 469 4 603 22 100 61 225 89 287 77 172 145 285 243 405 253 310 638
520 1035 565 104 12 388 3 473 -15z"/>
</g>
</svg>
