<!DOCTYPE svg PUBLIC "-//W3C//DTD SVG 20010904//EN"
 "http://www.w3.org/TR/2001/REC-SVG-20010904/DTD/svg10.dtd">
 <svg version="1.0" xmlns="http://www.w3.org/2000/svg" width="80" height="80"  viewBox="0 0 1500.000000 1500.000000" preserveAspectRatio="xMidYMid meet">
<g class="svg_teste" transform="translate(0.000000,1500.000000) scale(0.100000,-0.100000)"
fill="#000000" stroke="none">
<path d="M6985 14994 c-11 -1 -81 -8 -155 -14 -291 -25 -709 -88 -925 -140
-22 -5 -107 -26 -190 -45 -82 -20 -172 -43 -200 -51 -27 -8 -63 -19 -80 -23
-130 -38 -194 -58 -284 -88 -139 -46 -482 -175 -566 -213 -11 -5 -45 -20 -75
-33 -30 -13 -84 -37 -120 -53 -378 -165 -895 -468 -1285 -753 -1067 -778
-1891 -1795 -2444 -3015 -113 -250 -313 -804 -364 -1011 -3 -11 -17 -65 -32
-120 -73 -271 -146 -646 -184 -945 -52 -415 -77 -898 -62 -1184 41 -765 118
-1251 292 -1861 568 -1982 1962 -3668 3804 -4600 110 -55 234 -116 275 -134
161 -72 309 -135 410 -172 58 -22 114 -44 125 -49 42 -21 420 -141 579 -185
177 -49 418 -106 556 -131 47 -9 119 -22 160 -30 379 -70 828 -108 1280 -108
912 -1 1797 157 2628 469 172 64 244 94 412 168 829 368 1566 869 2213 1506
524 514 941 1062 1312 1720 45 80 245 476 245 485 0 2 19 44 41 93 157 335
333 854 438 1288 138 568 206 1151 205 1760 0 403 -26 754 -84 1133 -17 114
-28 175 -60 347 -55 298 -214 852 -328 1150 -395 1029 -959 1902 -1717 2660
-690 690 -1492 1232 -2365 1599 -74 31 -144 61 -155 66 -72 34 -438 161 -630
219 -487 145 -924 229 -1470 281 -179 17 -279 20 -695 19 -267 -1 -494 -3
-505 -5z m629 -2375 c19 -17 47 -55 61 -85 14 -30 30 -54 36 -54 6 0 43 14 82
32 84 37 164 43 195 15 10 -9 28 -17 41 -17 24 0 116 -44 126 -60 3 -5 39 -25
80 -44 173 -80 217 -159 306 -548 l31 -138 82 0 c101 0 186 -15 229 -40 18
-10 55 -24 82 -30 52 -11 255 -80 315 -107 19 -9 53 -28 75 -43 22 -15 60 -38
85 -50 25 -13 72 -43 105 -68 82 -63 314 -296 355 -357 18 -27 45 -63 60 -80
35 -38 91 -128 112 -180 43 -109 90 -281 103 -381 8 -62 26 -147 39 -190 103
-332 164 -721 133 -855 -9 -36 -8 -37 28 -43 58 -11 127 -86 153 -167 35 -108
47 -252 33 -372 -13 -103 -54 -245 -94 -325 l-21 -43 22 -173 c23 -184 49
-295 112 -491 83 -257 96 -366 61 -528 -40 -190 -133 -336 -246 -386 -49 -22
-206 -51 -272 -51 -57 0 -120 29 -161 74 -18 20 -38 36 -46 36 -7 0 -33 13
-57 30 -33 22 -56 30 -90 30 -25 0 -81 9 -124 20 -98 25 -198 25 -289 1 -193
-51 -386 -72 -673 -74 -123 -1 -223 -5 -223 -8 0 -3 12 -16 26 -30 39 -37 106
-135 152 -225 23 -45 58 -105 77 -134 19 -29 35 -58 35 -66 0 -25 37 -88 70
-119 18 -16 41 -42 52 -57 l19 -28 -23 -41 -22 -40 22 -65 c17 -49 20 -68 11
-82 -9 -14 -4 -36 24 -107 62 -156 88 -244 98 -328 5 -45 13 -109 19 -142 5
-33 10 -81 10 -107 0 -47 1 -48 32 -48 40 0 68 -25 68 -60 0 -31 -13 -44 -52
-54 -32 -7 -34 -17 -13 -75 8 -23 22 -112 32 -198 18 -166 13 -247 -21 -314
-9 -18 -16 -38 -16 -45 0 -8 -19 -51 -43 -96 -24 -46 -51 -105 -61 -133 -41
-110 -89 -127 -164 -57 l-32 30 6 78 c4 44 13 86 20 94 7 9 11 26 8 38 -4 13
2 36 15 57 20 34 20 37 4 102 -19 79 -27 93 -58 93 -20 0 -25 -9 -40 -67 -23
-93 -42 -128 -79 -148 -30 -16 -34 -16 -64 -1 -40 20 -47 47 -38 144 16 192
68 364 125 416 29 26 27 46 -4 46 -25 0 -75 39 -75 58 0 5 9 21 21 36 l21 26
-52 108 c-29 59 -61 129 -71 157 -11 27 -24 59 -29 70 -4 11 -17 47 -26 80
-25 82 -61 145 -84 145 -10 0 -25 2 -33 5 -12 5 -12 -3 -1 -57 24 -114 19
-134 -42 -176 -31 -21 -31 -23 -29 -94 1 -40 5 -80 8 -88 40 -109 76 -243 106
-395 11 -55 29 -143 41 -195 20 -98 50 -334 75 -595 8 -82 19 -184 25 -225 6
-41 17 -125 25 -186 17 -131 37 -193 99 -307 25 -47 46 -94 46 -105 0 -12 9
-37 21 -56 23 -40 17 -62 -26 -90 -35 -23 -31 -36 10 -36 40 0 71 -35 60 -70
-6 -18 -2 -20 33 -20 33 0 45 -6 68 -32 15 -18 35 -34 46 -34 23 -2 55 -29 78
-68 18 -27 46 -49 83 -62 9 -3 17 -15 17 -25 0 -22 59 -79 81 -79 9 0 22 -7
29 -15 7 -8 19 -15 26 -15 8 0 14 -4 14 -10 0 -5 5 -10 10 -10 16 0 80 -61 80
-77 0 -7 5 -13 10 -13 6 0 10 -9 10 -20 0 -12 6 -31 14 -43 8 -12 19 -41 24
-65 8 -34 7 -46 -5 -57 -8 -8 -15 -15 -16 -16 -6 -2 -189 -20 -302 -29 -89 -7
-168 -7 -250 1 -66 5 -147 12 -180 15 -33 3 -67 7 -75 11 -8 3 -31 7 -50 8
-41 4 -99 14 -120 22 -8 3 -26 7 -40 8 -14 2 -79 10 -145 19 -66 9 -150 20
-187 25 -37 4 -97 17 -132 27 -63 18 -65 20 -71 57 -5 28 -3 43 9 56 19 20 21
42 5 58 -6 6 -15 73 -20 148 -7 113 -6 143 5 167 14 26 13 30 -15 57 -36 36
-36 54 -3 98 21 27 25 41 19 66 -3 18 -10 91 -15 162 -5 88 -16 163 -35 230
-14 55 -37 147 -50 205 -35 156 -84 322 -116 395 -5 11 -24 60 -42 109 -19 50
-39 92 -45 94 -31 10 -95 -313 -143 -723 -13 -112 -2 -319 18 -359 8 -15 17
-61 20 -102 7 -83 -6 -124 -43 -149 -23 -15 -24 -21 -24 -118 0 -56 -5 -121
-10 -144 -9 -39 -11 -71 -11 -222 0 -30 -4 -60 -10 -67 -5 -7 -44 -25 -85 -40
-41 -15 -94 -39 -117 -54 -96 -60 -196 -72 -567 -68 -269 3 -311 6 -356 22
l-50 19 4 56 c2 31 10 63 16 71 7 8 18 33 25 55 8 22 27 56 42 76 16 20 29 40
29 44 0 4 20 32 45 61 25 28 45 57 45 63 0 6 4 11 9 11 5 0 12 9 16 20 3 11
19 32 36 47 17 17 29 38 29 53 0 18 9 31 30 43 17 10 30 26 30 36 0 9 5 22 12
29 10 10 5 19 -20 42 -37 34 -37 30 -16 78 10 20 20 60 25 87 4 28 22 91 40
140 32 90 32 90 39 345 4 140 3 345 -2 455 -10 236 -4 350 29 540 13 77 28
167 33 200 13 79 72 301 97 365 3 8 7 49 9 90 l2 75 -39 36 c-44 40 -46 56
-24 139 21 78 20 81 -17 73 -39 -7 -72 -43 -88 -98 -28 -90 -73 -218 -86 -243
-8 -15 -14 -30 -14 -34 0 -4 -31 -73 -70 -154 -38 -80 -70 -152 -70 -159 0 -7
19 -41 42 -76 39 -57 45 -77 75 -224 46 -223 43 -273 -18 -306 -47 -25 -116
42 -134 131 -20 99 -64 120 -89 43 -26 -82 -29 -116 -12 -148 9 -17 16 -44 16
-61 0 -16 5 -35 12 -42 14 -14 21 -157 9 -180 -5 -10 -30 -28 -55 -40 -42 -21
-47 -22 -69 -7 -13 8 -32 34 -42 58 -9 23 -21 50 -26 59 -5 10 -9 22 -9 27 0
6 -11 26 -24 46 -14 20 -32 57 -42 83 -9 26 -26 67 -38 92 -19 40 -21 62 -20
195 0 120 5 169 24 245 12 52 26 140 31 195 11 144 56 440 78 516 10 36 29 88
41 115 36 80 50 137 44 172 -4 22 0 47 11 71 16 37 16 39 -4 77 -12 21 -21 45
-21 52 0 7 22 37 49 65 55 59 81 104 81 141 0 37 14 67 53 110 20 22 50 69 67
105 40 82 112 186 159 228 20 18 34 33 31 33 -3 1 -104 2 -225 5 -121 2 -279
11 -351 19 -116 14 -169 24 -366 69 -39 9 -50 8 -74 -8 -19 -12 -59 -20 -133
-26 -58 -4 -145 -18 -193 -30 -82 -22 -86 -24 -91 -54 -10 -59 -35 -103 -69
-122 -68 -37 -291 -9 -415 52 -128 63 -215 193 -249 370 -29 158 -9 294 90
600 40 122 68 235 85 340 7 39 18 106 25 149 l13 79 -39 75 c-131 249 -160
538 -77 756 26 68 101 142 154 152 l34 6 -6 106 c-4 76 -1 132 10 192 9 47 23
128 32 180 9 52 25 138 36 190 11 52 26 136 34 185 12 85 27 151 61 290 21 82
58 183 150 409 26 64 50 106 142 244 36 54 118 132 138 132 7 0 20 12 29 27
40 61 92 101 302 235 138 88 226 120 379 138 62 7 112 19 156 39 71 33 201 61
262 58 l39 -2 34 99 c18 54 49 160 68 235 65 253 151 370 283 385 29 3 52 13
70 31 53 54 99 70 197 70 80 0 94 -3 125 -25 37 -26 108 -52 114 -41 1 3 9 27
16 53 7 26 25 58 41 74 25 24 37 28 77 26 26 -1 54 3 62 8 30 20 78 11 114
-21z"/>
</g>
</svg>
