<!DOCTYPE svg PUBLIC "-//W3C//DTD SVG 20010904//EN"
 "http://www.w3.org/TR/2001/REC-SVG-20010904/DTD/svg10.dtd">
 <svg version="1.0" xmlns="http://www.w3.org/2000/svg" width="80" height="80"  viewBox="0 0 1500.000000 1500.000000" preserveAspectRatio="xMidYMid meet">
<g class="svg_teste" transform="translate(0.000000,1500.000000) scale(0.100000,-0.100000)"
fill="#000000" stroke="none">
<path d="M6960 14989 c-577 -42 -1083 -134 -1660 -304 -155 -45 -437 -142
-497 -170 -17 -8 -36 -15 -42 -15 -6 0 -19 -4 -29 -10 -9 -5 -104 -46 -211
-91 -1498 -630 -2794 -1801 -3603 -3254 -197 -354 -438 -895 -543 -1220 -91
-282 -114 -362 -180 -625 -83 -331 -141 -669 -180 -1057 -21 -212 -21 -1252 0
-1473 47 -486 136 -937 280 -1425 33 -113 119 -369 152 -455 39 -102 83 -213
93 -235 5 -11 22 -51 38 -90 84 -201 245 -528 357 -725 43 -74 88 -153 100
-175 47 -82 191 -304 278 -430 593 -850 1317 -1539 2212 -2102 325 -205 859
-475 1165 -589 36 -13 74 -28 85 -33 195 -85 696 -240 970 -301 55 -12 106
-24 113 -26 36 -11 312 -63 472 -88 238 -38 536 -66 929 -86 225 -12 453 -5
846 26 956 76 1895 341 2765 782 1330 674 2448 1752 3170 3057 247 446 477
986 600 1405 12 41 25 86 30 100 14 38 91 326 107 400 140 629 196 1121 197
1730 0 991 -185 1936 -557 2845 -691 1685 -2005 3089 -3638 3887 -85 41 -170
82 -189 91 -19 8 -66 29 -103 46 -38 17 -71 31 -74 31 -3 0 -19 6 -36 14 -202
92 -645 245 -937 323 -474 127 -916 202 -1410 238 -213 16 -870 18 -1070 4z
m2692 -4363 c582 -24 1132 -379 1543 -996 392 -588 689 -1330 835 -2085 6 -33
15 -78 20 -100 8 -38 18 -102 39 -245 5 -36 17 -139 26 -230 9 -91 21 -194 27
-230 6 -36 13 -235 15 -445 4 -302 2 -404 -11 -500 -8 -66 -20 -172 -26 -235
-23 -233 -42 -358 -100 -630 -21 -103 -95 -282 -152 -371 -173 -270 -445 -400
-768 -367 -161 16 -326 99 -570 287 -291 223 -701 624 -1061 1036 -189 217
-263 286 -352 329 -167 82 -24 76 -1820 76 -1771 0 -1665 4 -1812 -65 -105
-49 -160 -96 -295 -250 -599 -684 -1135 -1173 -1465 -1337 -114 -57 -140 -65
-247 -77 -157 -18 -322 10 -453 76 -198 101 -344 282 -428 535 -49 146 -96
379 -127 628 -43 352 -45 393 -45 815 0 427 0 420 46 810 15 130 45 335 59
400 5 22 14 67 20 100 19 97 71 326 90 395 56 202 90 313 143 460 72 201 87
242 113 298 13 29 24 55 24 57 0 12 92 207 173 365 219 429 416 710 663 950
292 283 585 444 949 521 99 21 136 24 360 23 302 0 410 -16 705 -108 212 -66
522 -221 730 -365 111 -77 206 -120 347 -158 60 -16 114 -18 448 -18 l380 0
95 29 c119 36 210 80 322 157 304 208 695 374 1023 436 94 17 337 41 380 37
17 -2 87 -6 157 -8z"/>
<path d="M9001 9504 c-88 -33 -153 -76 -211 -142 -182 -205 -172 -524 23 -709
68 -64 116 -94 197 -122 183 -64 376 -20 522 117 201 190 213 506 29 713 -61
68 -124 110 -217 144 -96 35 -248 35 -343 -1z"/>
<path d="M4970 9158 c-67 -18 -105 -29 -132 -40 l-28 -10 0 -334 0 -334 -330
0 -330 0 -14 -22 c-16 -25 -35 -75 -57 -148 -19 -61 -16 -249 4 -322 20 -73
50 -140 69 -155 11 -9 97 -13 324 -15 l309 -3 3 -316 2 -317 40 -26 c75 -49
138 -68 246 -74 111 -5 172 5 273 44 109 44 100 11 103 373 l3 316 331 3 331
2 32 72 c38 84 71 207 70 263 0 85 -65 271 -108 309 -15 13 -66 16 -327 18
l-309 3 -3 328 c-1 180 -3 327 -5 327 -1 0 -30 10 -62 21 -33 12 -89 28 -125
35 -73 16 -257 17 -310 2z"/>
<path d="M10420 8749 c-250 -24 -450 -250 -450 -509 0 -251 184 -465 438 -510
86 -16 186 -4 275 33 194 78 317 263 317 477 0 227 -133 415 -345 488 -69 23
-142 30 -235 21z"/>
<path d="M9091 8078 c-193 -27 -365 -186 -416 -383 -94 -359 229 -705 591
-633 117 23 187 60 272 144 162 161 199 391 96 602 -41 84 -146 185 -235 226
-62 29 -203 61 -237 55 -4 -1 -36 -6 -71 -11z"/>
</g>
</svg>
