<!DOCTYPE svg PUBLIC "-//W3C//DTD SVG 20010904//EN"
 "http://www.w3.org/TR/2001/REC-SVG-20010904/DTD/svg10.dtd">
 <svg version="1.0" xmlns="http://www.w3.org/2000/svg" width="80" height="80"  viewBox="0 0 1500.000000 1500.000000" preserveAspectRatio="xMidYMid meet">
<g class="svg_teste" transform="translate(0.000000,1500.000000) scale(0.100000,-0.100000)"
fill="#000000" stroke="none">
<path d="M7245 14963 c-896 -27 -1805 -222 -2640 -568 -212 -87 -639 -298
-845 -417 -1432 -823 -2552 -2095 -3187 -3618 -566 -1357 -715 -2890 -422
-4344 488 -2429 2164 -4467 4457 -5422 1233 -513 2599 -685 3937 -493 2598
371 4815 2093 5832 4529 565 1355 715 2889 422 4344 -425 2115 -1757 3953
-3639 5021 -202 115 -613 317 -815 400 -828 343 -1668 526 -2585 565 -212 9
-299 10 -515 3z m977 -2574 c62 -31 2682 -2649 2729 -2727 28 -47 34 -67 37
-127 7 -133 12 -127 -437 -577 -218 -219 -402 -398 -411 -398 -18 0 -3010
2989 -3010 3007 0 7 178 190 395 407 276 277 407 401 437 415 63 30 201 29
260 0z m13 -2729 c828 -828 1505 -1507 1505 -1510 0 -3 -252 -257 -560 -565
l-560 -560 0 -943 c0 -920 -1 -946 -21 -1030 -69 -290 -291 -536 -568 -631
-123 -42 -148 -44 -591 -50 l-435 -6 -3 -118 -3 -117 248 0 c309 0 450 -17
616 -74 179 -60 328 -156 473 -300 236 -236 365 -534 368 -851 0 -73 -4 -100
-22 -141 -26 -58 -88 -122 -147 -153 l-40 -21 -1790 0 -1790 0 -40 21 c-60 31
-121 96 -146 153 -20 44 -23 67 -21 161 1 102 6 137 34 255 49 208 165 408
332 576 145 144 294 240 473 300 166 57 307 74 616 74 l248 0 -3 117 -3 118
-435 6 c-477 6 -495 8 -650 74 -248 105 -443 337 -509 607 -20 83 -21 110 -21
644 l0 557 -138 141 c-115 117 -145 155 -176 217 -90 182 -78 366 36 551 l23
37 -166 168 c-182 183 -246 270 -296 399 -51 131 -58 169 -58 324 0 156 13
225 61 335 7 17 17 41 23 55 41 104 108 174 1362 1432 690 691 1257 1256 1261
1255 5 -1 685 -679 1513 -1507z"/>
<path d="M7655 6059 c-203 -204 -402 -397 -440 -428 -59 -47 -160 -104 -250
-142 -98 -42 -342 -62 -458 -39 -136 27 -260 82 -367 161 -36 26 -132 116
-215 198 -82 83 -153 151 -158 151 -5 0 -27 -13 -50 -28 -81 -54 -153 -78
-261 -88 l-77 -7 3 -331 3 -331 27 -50 c31 -60 77 -104 138 -136 l45 -24 1110
0 1110 0 42 23 c69 36 111 80 143 147 l30 63 -2 616 -3 616 -370 -371z"/>
</g>
</svg>
