<!DOCTYPE svg PUBLIC "-//W3C//DTD SVG 20010904//EN"
 "http://www.w3.org/TR/2001/REC-SVG-20010904/DTD/svg10.dtd">
 <svg version="1.0" xmlns="http://www.w3.org/2000/svg" width="80" height="80"  viewBox="0 0 1500.000000 1500.000000" preserveAspectRatio="xMidYMid meet">
<g class="svg_teste" transform="translate(0.000000,1500.000000) scale(0.100000,-0.100000)"
fill="#000000" stroke="none">
<path d="M4840 9994 c-1294 -48 -2477 -560 -3380 -1464 -831 -831 -1334 -1902
-1445 -3079 -20 -220 -20 -692 0 -912 111 -1174 612 -2245 1440 -3074 648
-650 1458 -1108 2337 -1324 418 -103 742 -141 1209 -141 399 0 686 29 1045
106 1739 371 3158 1653 3707 3350 164 506 239 989 239 1539 0 550 -75 1033
-239 1539 -617 1905 -2313 3262 -4303 3440 -174 15 -467 25 -610 20z m-2575
-2334 c395 -48 920 -201 1293 -376 52 -24 96 -44 98 -44 14 0 178 -101 239
-146 97 -72 165 -161 165 -214 0 -57 -53 -112 -136 -142 -51 -18 -80 -21 -214
-21 -85 1 -184 6 -220 13 -213 37 -408 77 -480 99 -19 6 -38 11 -42 11 -5 0
-8 -128 -8 -284 0 -157 -3 -287 -8 -289 -4 -3 -35 4 -69 15 l-63 21 -2 289 -3
289 -155 53 c-393 136 -684 280 -826 410 -60 54 -104 125 -104 166 0 12 9 39
20 60 49 95 223 125 515 90z m5922 -23 c67 -35 83 -59 83 -125 0 -77 -26 -119
-123 -195 -83 -67 -111 -84 -219 -142 -92 -48 -348 -165 -361 -165 -3 0 -18
-5 -34 -12 -15 -6 -98 -35 -183 -64 l-155 -53 -5 -317 -5 -317 -59 -18 c-32
-10 -62 -16 -67 -13 -5 3 -9 144 -9 315 0 170 -3 309 -8 309 -4 0 -23 -5 -42
-11 -75 -24 -304 -71 -475 -98 -33 -5 -109 -13 -170 -16 -298 -18 -448 71
-381 228 39 92 263 247 521 359 39 16 84 36 100 44 51 23 334 124 425 151 197
59 375 103 545 134 181 34 222 37 400 35 163 -2 172 -3 222 -29z m-2613 -1096
c55 -36 66 -66 66 -176 0 -112 -12 -141 -69 -176 -29 -17 -53 -19 -271 -19
l-240 0 0 -150 0 -151 -67 3 -68 3 -3 148 -3 147 -238 0 c-231 0 -239 1 -272
23 -53 36 -60 58 -57 184 3 103 5 113 28 138 14 15 34 31 45 35 11 5 268 9
570 9 523 1 551 0 579 -18z m-2894 -292 c25 -6 97 -19 160 -30 63 -11 165 -29
225 -39 61 -11 173 -31 250 -45 77 -14 183 -32 235 -40 52 -9 103 -18 113 -21
10 -3 71 -15 135 -26 64 -11 150 -25 190 -32 41 -8 81 -21 93 -32 23 -21 23
-17 -6 -226 l-19 -128 -60 -47 c-34 -26 -96 -81 -138 -122 l-78 -74 -97 17
c-54 10 -145 26 -203 36 -275 48 -345 61 -480 85 -80 15 -194 35 -255 46 -110
19 -190 34 -233 44 -35 8 -41 40 -26 140 7 50 22 153 33 230 27 185 39 245 52
262 14 16 48 16 109 2z m4660 -69 c20 -11 33 -56 55 -200 8 -52 21 -135 30
-185 19 -112 19 -169 1 -184 -18 -15 -111 -33 -481 -91 -66 -11 -176 -29 -245
-40 -69 -12 -179 -30 -245 -40 -66 -11 -151 -25 -190 -31 l-70 -11 -70 67
c-38 37 -99 89 -135 117 l-65 50 -17 86 c-27 138 -31 204 -16 224 13 17 39 23
328 69 69 11 177 28 240 39 63 10 176 28 250 39 74 12 142 23 150 26 8 2 76
14 150 26 74 12 169 27 210 34 99 17 98 17 120 5z m-2187 -385 c120 -8 317
-58 437 -111 210 -94 396 -230 542 -398 270 -312 392 -681 367 -1111 -27 -455
-289 -895 -689 -1156 l-24 -16 115 -137 c120 -145 138 -171 139 -197 0 -29
-39 -69 -69 -69 -32 0 -68 35 -207 205 -55 68 -105 119 -113 119 -9 -1 -50
-16 -91 -34 -91 -38 -189 -67 -295 -88 -111 -21 -442 -21 -545 0 -137 29 -254
66 -359 115 -41 18 -21 36 -198 -180 -100 -121 -116 -137 -143 -137 -33 0 -80
40 -80 69 0 16 30 56 175 236 39 47 70 90 70 95 0 5 -38 37 -85 71 -312 227
-544 603 -600 969 -84 561 116 1085 550 1436 166 134 387 240 615 295 87 21
288 38 370 33 22 -2 75 -6 118 -9z m-2258 -326 l65 -22 0 -998 0 -998 128
-103 c156 -128 391 -317 577 -467 138 -110 165 -138 165 -174 0 -25 -45 -67
-71 -67 -13 0 -74 42 -148 102 -69 56 -226 183 -349 282 -123 100 -241 194
-263 209 l-39 28 0 -447 c0 -402 -2 -449 -17 -466 -20 -23 -80 -24 -105 -1
-17 15 -18 43 -18 470 l0 454 -87 -73 c-49 -40 -121 -100 -162 -133 -40 -33
-92 -76 -116 -95 -23 -19 -60 -48 -81 -65 -21 -16 -54 -44 -74 -61 -19 -17
-69 -57 -110 -90 -41 -32 -77 -61 -80 -64 -15 -17 -70 -50 -83 -50 -30 0 -67
40 -67 73 0 18 4 37 8 42 4 6 197 165 430 354 l422 342 0 1020 c0 560 2 1019
5 1019 2 0 34 -10 70 -21z m4295 -998 l0 -1018 412 -334 c227 -184 423 -345
435 -358 13 -13 23 -34 23 -46 0 -28 -46 -75 -74 -75 -13 0 -173 123 -406 313
l-385 313 -5 -458 c-5 -504 -2 -478 -68 -478 -68 0 -66 -10 -72 485 l-5 444
-363 -294 c-396 -320 -403 -325 -429 -325 -27 1 -61 31 -68 62 -6 22 0 34 32
67 31 32 714 588 806 656 l27 20 0 997 c0 786 3 999 13 1005 11 8 103 40 120
42 4 1 7 -457 7 -1018z"/>
<path d="M4840 5604 c-68 -9 -216 -45 -290 -72 -315 -112 -571 -334 -728 -634
-21 -40 -45 -91 -52 -113 -7 -22 -16 -44 -20 -50 -4 -5 -20 -59 -36 -120 -28
-105 -29 -120 -29 -325 0 -202 2 -221 27 -316 104 -385 345 -686 687 -859 93
-47 157 -70 276 -103 95 -26 111 -27 320 -27 133 1 236 5 260 12 22 7 67 19
100 28 33 9 74 23 92 31 17 7 34 14 38 14 15 0 125 56 200 101 250 152 459
414 554 694 54 158 65 231 65 425 1 145 -3 201 -17 260 -71 291 -170 473 -367
671 -193 194 -382 297 -665 364 -69 16 -337 28 -415 19z m396 -138 c141 -32
199 -53 309 -111 122 -64 205 -124 296 -216 228 -230 349 -523 349 -843 0
-795 -750 -1370 -1515 -1162 -165 46 -303 118 -450 237 -182 147 -326 370
-391 604 -164 601 159 1223 751 1446 192 72 449 90 651 45z"/>
<path d="M5265 4534 c-189 -51 -298 -147 -353 -313 -51 -150 -10 -331 102
-449 115 -124 298 -172 461 -121 148 45 247 142 302 294 27 75 25 213 -5 289
-54 138 -148 232 -282 281 -46 16 -189 28 -225 19z m199 -136 c124 -46 216
-178 216 -313 0 -298 -360 -447 -571 -236 -75 76 -103 146 -97 251 6 97 33
157 101 224 95 93 224 120 351 74z"/>
</g>
</svg>
