<?xml version="1.0" standalone="no"?>
<!DOCTYPE svg PUBLIC "-//W3C//DTD SVG 20010904//EN"
 "http://www.w3.org/TR/2001/REC-SVG-20010904/DTD/svg10.dtd">
<svg version="1.0" xmlns="http://www.w3.org/2000/svg"
 width="1500.000000pt" height="1500.000000pt" viewBox="0 0 1500.000000 1500.000000"
 preserveAspectRatio="xMidYMid meet">

<g transform="translate(0.000000,1500.000000) scale(0.100000,-0.100000)"
fill="#000000" stroke="none">
<path d="M7380 14945 c-8 -2 -118 -9 -244 -15 -231 -10 -314 -17 -551 -46
-194 -23 -450 -65 -580 -94 -22 -5 -71 -15 -110 -24 -184 -40 -327 -76 -500
-127 -95 -28 -425 -138 -450 -149 -11 -6 -67 -27 -125 -49 -555 -207 -1223
-573 -1730 -949 -1362 -1010 -2327 -2418 -2774 -4047 -25 -92 -55 -214 -82
-340 -9 -38 -19 -88 -24 -110 -15 -64 -48 -251 -65 -365 -8 -58 -20 -134 -25
-170 -34 -220 -78 -936 -66 -1061 4 -35 11 -163 16 -284 25 -553 127 -1176
273 -1670 8 -27 26 -88 40 -135 125 -421 359 -981 564 -1350 17 -30 54 -98 83
-150 97 -175 306 -498 448 -693 710 -973 1636 -1758 2700 -2290 191 -96 388
-184 565 -252 78 -31 151 -60 162 -64 59 -26 330 -117 445 -151 41 -12 86 -26
100 -31 14 -4 43 -13 65 -18 22 -5 94 -23 160 -41 123 -32 156 -39 380 -84
263 -53 437 -78 720 -106 55 -5 150 -15 210 -21 136 -13 1013 -7 1165 9 232
24 525 63 625 82 28 5 109 21 180 35 72 14 157 31 190 39 33 8 89 21 125 29
263 61 843 245 995 317 11 5 95 40 186 79 1280 541 2429 1490 3224 2665 463
683 820 1462 1027 2236 29 112 38 146 73 300 63 273 115 601 145 905 5 55 15
150 21 210 14 139 7 1002 -9 1170 -15 145 -39 348 -52 430 -31 199 -45 278
-76 431 -19 94 -50 233 -70 310 -20 76 -40 157 -45 179 -5 22 -14 51 -18 65
-5 14 -19 59 -32 100 -38 131 -158 482 -179 525 -5 11 -19 45 -30 75 -11 30
-25 64 -30 75 -5 11 -28 65 -51 120 -51 125 -219 469 -289 595 -29 52 -67 120
-83 150 -102 186 -327 529 -496 755 -439 589 -999 1142 -1596 1576 -371 270
-833 544 -1200 711 -55 25 -131 60 -170 78 -198 91 -592 238 -821 306 -259 76
-319 92 -544 144 -487 111 -989 169 -1590 185 -91 2 -172 2 -180 0z m3308
-3640 c212 -26 370 -61 577 -130 274 -91 627 -263 728 -354 89 -80 113 -213
59 -321 -25 -49 -210 -393 -283 -527 -16 -29 -42 -77 -58 -105 -30 -56 -214
-396 -289 -538 -26 -47 -78 -143 -117 -215 l-71 -130 -859 0 -858 0 -49 90
c-27 50 -75 137 -105 195 -31 58 -71 131 -89 163 -19 32 -34 60 -34 62 0 2
-35 69 -78 147 -43 79 -105 193 -137 253 -32 61 -75 139 -95 175 -20 36 -58
106 -85 155 -41 77 -110 205 -136 255 -84 156 -29 316 142 409 182 99 381 194
485 231 33 12 68 25 79 30 71 31 318 101 425 121 259 49 607 63 848 34z
m-4203 -369 c192 -31 307 -56 460 -101 825 -244 1539 -850 1923 -1632 28 -57
54 -113 58 -125 4 -13 19 -50 34 -83 41 -90 126 -361 150 -481 67 -328 89
-596 71 -868 -6 -94 -16 -202 -22 -241 -16 -98 -58 -309 -76 -375 -8 -30 -18
-68 -23 -85 -18 -66 -63 -194 -106 -299 -219 -534 -582 -1000 -1047 -1342
l-100 -74 -801 1 c-745 0 -906 5 -801 22 22 4 63 7 90 7 80 0 339 48 470 86
107 31 384 135 410 154 6 4 44 24 85 46 100 51 305 186 410 270 128 102 334
314 432 445 280 373 441 763 510 1234 17 121 17 552 0 665 -37 233 -87 428
-152 595 -50 127 -147 328 -181 376 -10 15 -19 30 -19 34 0 4 -28 48 -62 98
-194 287 -468 556 -754 740 -271 175 -614 310 -929 366 -184 33 -223 36 -465
36 -242 0 -281 -3 -465 -36 -95 -17 -224 -48 -305 -75 -41 -13 -91 -29 -110
-35 -55 -18 -141 -55 -265 -115 -246 -119 -466 -276 -671 -479 -145 -145 -230
-246 -339 -410 -398 -596 -528 -1350 -353 -2050 27 -108 44 -162 110 -344 23
-65 123 -269 161 -328 15 -24 27 -45 27 -47 0 -11 127 -190 201 -283 242 -306
661 -622 999 -753 30 -12 69 -28 85 -35 30 -13 144 -50 245 -80 113 -33 361
-75 440 -75 26 0 62 -3 81 -7 89 -17 -61 -22 -804 -22 l-798 -1 -97 72 c-396
293 -716 670 -937 1103 -102 200 -151 321 -215 535 -12 41 -26 86 -30 100 -10
30 -34 144 -72 355 -18 100 -18 751 0 860 26 151 63 330 81 390 10 33 28 94
41 135 82 270 248 604 423 850 302 424 694 763 1141 990 240 122 403 184 646
247 154 39 243 55 490 86 86 11 628 -2 725 -17z m-196 -1057 c251 -40 241 -38
414 -94 313 -103 568 -262 807 -504 324 -327 517 -716 584 -1172 21 -139 21
-425 1 -562 -56 -379 -207 -725 -443 -1018 -78 -97 -267 -280 -363 -351 -272
-203 -562 -327 -909 -390 -102 -18 -568 -18 -665 0 -313 59 -548 153 -805 320
-406 263 -739 723 -853 1177 -45 178 -55 237 -69 401 -18 222 4 434 71 700 19
76 73 219 120 319 215 455 587 813 1071 1029 128 57 340 113 545 144 86 13
416 14 494 1z m4769 -1823 c2 -313 -1 -401 -10 -408 -7 -4 -310 -8 -673 -8
-501 0 -664 3 -673 12 -9 9 -12 112 -12 403 0 216 3 395 7 398 3 4 311 6 682
5 l676 -3 3 -399z m-3 -2396 c0 -1636 6 -1501 -77 -1670 -59 -120 -178 -239
-298 -297 -111 -54 -191 -73 -305 -73 -184 0 -339 64 -470 195 -126 126 -183
241 -205 417 -11 92 -15 2870 -3 2881 3 4 311 6 682 5 l676 -3 0 -1455z
m-2035 -977 c81 -40 131 -100 156 -184 14 -47 15 -67 5 -152 -24 -196 -95
-345 -233 -486 -107 -109 -229 -180 -376 -217 l-95 -24 -2427 0 -2427 0 -98
25 c-268 68 -486 272 -576 540 -21 60 -24 89 -24 210 l0 140 33 48 c39 56 95
95 160 113 38 10 631 12 2952 11 l2905 -2 45 -22z"/>
<path d="M6260 9093 c-84 -15 -85 -16 -763 -692 -387 -385 -678 -683 -690
-706 -31 -57 -31 -183 0 -241 43 -80 131 -133 223 -134 121 0 87 -30 817 700
724 723 713 710 713 819 0 91 -60 190 -140 231 -37 19 -119 31 -160 23z"/>
<path d="M6965 8320 c-43 -17 -134 -104 -708 -677 -362 -362 -670 -676 -684
-698 -35 -53 -43 -155 -18 -221 38 -101 130 -164 240 -164 115 0 97 -15 826
716 727 729 693 690 692 809 -1 110 -61 198 -160 235 -67 25 -123 25 -188 0z"/>
</g>
</svg>
