<?xml version="1.0" standalone="no"?>
<!DOCTYPE svg PUBLIC "-//W3C//DTD SVG 20010904//EN"
 "http://www.w3.org/TR/2001/REC-SVG-20010904/DTD/svg10.dtd">
<svg version="1.0" xmlns="http://www.w3.org/2000/svg"
 width="1500.000000pt" height="1500.000000pt" viewBox="0 0 1500.000000 1500.000000"
 preserveAspectRatio="xMidYMid meet">

<g transform="translate(0.000000,1500.000000) scale(0.100000,-0.100000)"
fill="#000000" stroke="none">
<path d="M7285 14974 c-204 -9 -446 -26 -610 -45 -1416 -157 -2754 -718 -3870
-1621 -370 -300 -803 -734 -1101 -1103 -975 -1208 -1533 -2635 -1645 -4205
-15 -212 -15 -768 0 -980 122 -1707 778 -3260 1904 -4505 1319 -1459 3087
-2317 5062 -2456 219 -16 751 -16 970 0 1346 95 2579 514 3675 1251 398 268
715 527 1059 864 537 528 966 1090 1319 1728 1014 1833 1207 4029 528 6023
-278 819 -707 1594 -1260 2280 -298 369 -731 803 -1101 1103 -1204 975 -2674
1552 -4205 1651 -173 11 -602 20 -725 15z m1350 -2438 c42 -19 96 -55 126 -83
52 -49 109 -123 109 -143 0 -6 -18 -49 -40 -96 -22 -47 -40 -87 -40 -89 0 -2
-22 -51 -50 -110 -28 -59 -50 -108 -50 -110 0 -2 -18 -41 -39 -87 -21 -45 -60
-130 -86 -188 -26 -58 -65 -143 -86 -188 -21 -46 -39 -85 -39 -87 0 -2 -22
-51 -50 -110 -27 -59 -50 -108 -50 -110 0 -2 -20 -45 -44 -97 -24 -51 -53
-115 -66 -143 -12 -27 -33 -74 -46 -102 -26 -57 -59 -131 -98 -215 -13 -29
-36 -80 -51 -113 -39 -85 -71 -156 -101 -222 -14 -32 -40 -87 -56 -123 -42
-91 -70 -153 -227 -500 -78 -172 -144 -305 -151 -305 -7 0 -73 133 -151 305
-76 168 -150 332 -165 365 -71 155 -107 234 -129 280 -13 28 -33 73 -45 100
-12 28 -35 77 -50 110 -15 33 -38 83 -50 110 -12 28 -35 77 -50 110 -15 33
-39 85 -53 115 -13 30 -37 82 -52 115 -15 33 -42 93 -61 133 -19 41 -34 75
-34 77 0 2 -18 42 -40 89 -22 47 -108 236 -191 419 -83 182 -166 365 -185 405
-19 41 -34 75 -34 77 0 2 -18 42 -40 89 -22 47 -40 90 -40 96 0 18 55 92 102
138 24 23 80 60 123 82 l80 40 1063 0 1063 0 74 -34z m-2709 -507 c11 -23 13
-38 6 -58 -12 -34 -29 -93 -72 -251 -11 -41 -25 -91 -30 -110 -5 -19 -19 -69
-30 -110 -11 -41 -25 -91 -30 -110 -5 -19 -19 -69 -30 -110 -11 -41 -24 -88
-29 -105 -5 -16 -19 -68 -31 -115 -12 -47 -35 -130 -50 -185 -95 -339 -180
-666 -180 -690 0 -73 -10 -66 971 -720 l929 -619 0 -1397 c0 -769 -4 -1400 -8
-1403 -4 -2 -39 2 -77 10 -197 42 -413 -70 -501 -261 -70 -153 -57 -322 38
-462 34 -51 34 -56 3 -97 -13 -17 -37 -59 -52 -92 -24 -54 -27 -70 -28 -179 0
-119 0 -120 38 -196 91 -181 274 -286 465 -264 37 4 78 8 92 9 l25 1 3 -1043
2 -1042 -225 0 c-124 0 -225 3 -225 6 0 3 11 20 25 38 13 17 37 59 51 92 25
54 28 70 28 179 0 109 -3 126 -27 178 -59 129 -165 225 -297 267 -27 9 -83 15
-140 15 -104 -1 -175 -22 -257 -77 -51 -34 -56 -34 -97 -3 -133 101 -349 112
-501 25 -68 -39 -155 -132 -187 -200 -71 -150 -59 -320 32 -463 16 -26 30 -50
30 -52 0 -3 -228 -5 -506 -5 l-506 0 -59 35 c-66 41 -99 76 -137 149 l-27 51
-3 1363 c-3 1503 -7 1399 60 1350 51 -38 101 -58 185 -74 68 -13 87 -13 156 0
162 31 270 112 340 255 41 86 42 86 41 201 0 110 -1 118 -35 190 -20 41 -43
81 -52 89 -24 19 -21 36 11 84 158 233 72 564 -175 679 -166 78 -374 58 -491
-46 -20 -17 -24 -18 -32 -6 -6 9 -10 309 -10 739 l0 723 -171 -343 c-94 -189
-178 -352 -186 -361 -15 -17 -65 -18 -775 -18 l-758 0 0 358 0 358 31 140 c16
76 39 184 51 239 11 55 28 138 38 185 10 47 28 132 40 190 12 58 30 143 40
190 10 47 28 132 40 190 12 58 26 123 31 145 5 22 14 63 19 90 5 28 14 70 20
95 6 25 15 68 20 95 5 28 14 70 20 95 6 25 15 68 20 95 5 28 14 70 20 95 6 25
15 68 20 95 5 28 14 70 20 95 6 25 15 68 20 95 5 28 14 70 20 95 6 25 15 68
20 95 5 28 14 70 20 95 9 41 15 69 39 185 54 258 57 269 124 367 58 85 181
172 253 180 27 3 29 1 31 -37 13 -202 110 -354 278 -436 68 -33 74 -34 190
-34 117 1 122 2 195 36 41 20 81 43 89 52 19 24 36 21 86 -13 100 -69 226 -99
333 -80 194 35 344 173 388 358 25 106 12 209 -41 317 -29 58 -130 169 -165
180 -40 13 -23 40 33 54 70 18 384 105 437 121 27 8 61 18 180 50 41 11 89 24
105 29 17 4 50 14 75 21 25 7 56 16 70 20 14 4 43 13 65 19 22 6 69 19 105 30
89 26 97 26 116 -10z m3254 11 c19 -5 51 -13 70 -19 19 -5 52 -15 73 -20 20
-6 52 -15 70 -20 17 -5 68 -19 112 -31 77 -21 110 -30 185 -51 19 -6 49 -14
65 -19 41 -11 165 -46 250 -69 39 -11 104 -29 145 -40 41 -12 87 -24 103 -27
34 -8 37 -41 5 -53 -34 -13 -125 -107 -150 -154 -31 -58 -44 -97 -58 -172 -20
-104 11 -226 82 -332 15 -23 28 -44 28 -48 0 -4 -13 -25 -28 -48 -64 -95 -75
-133 -76 -257 -1 -74 4 -127 13 -150 59 -155 146 -242 301 -301 23 -9 76 -14
150 -13 103 0 121 3 174 27 33 15 75 39 92 52 18 14 36 25 39 25 4 0 26 -14
51 -31 76 -52 186 -88 269 -88 150 0 316 94 394 223 112 187 85 421 -65 572
-101 101 -224 144 -411 144 l-83 0 0 93 c-1 79 -8 129 -37 245 -3 12 -9 25
-14 28 -15 9 -10 44 7 44 14 0 121 -29 304 -81 125 -36 275 -78 335 -94 33 -9
74 -20 90 -25 17 -5 57 -16 90 -25 170 -46 162 -42 173 -88 6 -23 14 -58 17
-77 4 -19 11 -53 16 -75 5 -22 14 -62 19 -90 5 -27 14 -70 20 -95 6 -25 15
-67 20 -95 5 -27 14 -70 20 -95 6 -25 15 -67 20 -95 5 -27 14 -70 20 -95 6
-25 15 -67 20 -95 5 -27 14 -70 20 -95 6 -25 15 -67 20 -95 5 -27 14 -70 20
-95 6 -25 14 -67 20 -95 5 -27 18 -90 29 -140 10 -49 29 -137 41 -195 12 -58
31 -145 41 -195 11 -49 24 -112 29 -140 6 -27 14 -70 20 -95 6 -25 15 -67 20
-95 5 -27 14 -70 20 -95 6 -25 14 -65 19 -90 5 -25 19 -92 31 -150 40 -193 57
-274 89 -425 17 -82 35 -166 41 -185 6 -20 10 -183 10 -392 l0 -358 -758 0
c-710 0 -760 1 -774 18 -9 9 -93 171 -187 360 l-171 344 0 -1681 c0 -1022 -4
-1682 -9 -1686 -5 -3 -29 8 -54 25 -94 63 -131 74 -262 74 -119 1 -121 1 -198
-37 -181 -88 -280 -263 -263 -464 7 -87 27 -143 78 -220 32 -48 35 -65 11 -84
-9 -8 -32 -48 -52 -89 -33 -71 -35 -81 -35 -185 -1 -94 2 -119 23 -170 66
-162 194 -266 365 -294 113 -20 250 12 334 76 65 49 63 58 60 -394 l-3 -408
-26 -55 c-35 -74 -69 -113 -138 -155 l-59 -35 -531 0 -531 0 0 731 c0 731 0
731 -22 770 -44 78 7 74 -906 77 l-812 2 2 253 3 252 25 -1 c14 -1 55 -5 92
-9 223 -25 437 125 494 346 33 128 3 287 -71 385 -31 41 -31 46 3 97 65 96 88
187 78 311 -8 108 -62 222 -140 293 -110 101 -268 148 -401 119 -38 -8 -73
-12 -77 -10 -4 3 -8 634 -8 1402 l1 1397 929 620 c982 656 970 647 970 722 0
16 -15 85 -34 154 -37 133 -159 581 -181 664 -15 56 -41 152 -89 328 -8 28
-21 77 -30 107 -20 76 -46 169 -56 205 -5 17 -18 66 -30 110 -12 44 -26 95
-31 113 -5 17 -13 47 -18 65 -5 17 -12 39 -16 49 -3 9 1 31 10 48 18 34 12 34
105 10z m-3039 -587 c6 -16 23 -55 39 -88 79 -167 137 -289 175 -370 23 -49
84 -178 135 -285 106 -224 166 -351 220 -465 21 -44 61 -129 90 -190 29 -60
65 -137 80 -170 15 -33 56 -118 90 -190 155 -325 151 -316 128 -314 -25 1
-1323 876 -1322 890 1 8 11 50 24 94 54 198 76 281 90 330 5 17 18 66 30 110
12 44 25 94 30 110 5 17 18 66 30 110 12 44 25 94 30 110 5 17 18 66 30 110
12 44 25 94 30 110 5 17 13 46 18 66 17 66 36 77 53 32z m2755 16 c4 -6 10
-25 14 -43 5 -17 15 -57 24 -88 9 -32 23 -84 32 -115 9 -32 20 -71 24 -88 5
-16 18 -66 30 -110 12 -44 25 -93 30 -110 5 -16 18 -66 30 -110 12 -44 25 -93
30 -110 5 -16 18 -66 30 -110 12 -44 25 -93 30 -110 35 -126 53 -192 54 -205
1 -15 -1296 -888 -1321 -889 -21 -1 -15 18 31 114 41 83 64 133 174 365 22 47
72 152 111 233 39 82 71 150 71 152 0 1 36 78 81 171 45 93 112 234 149 314
38 80 93 197 123 260 30 63 73 156 97 205 23 50 57 122 76 160 18 39 37 83 43
98 11 28 25 35 37 16z m-4878 -110 c2 -96 1 -108 -20 -139 -73 -108 -213 -109
-285 -1 -48 71 -15 188 65 231 31 16 54 19 137 17 l100 -2 3 -106z m541 96
c69 -35 110 -123 91 -194 -21 -80 -76 -121 -163 -121 -110 0 -167 74 -167 216
0 45 3 89 6 98 8 22 191 23 233 1z m6020 1 c15 -8 42 -31 59 -50 35 -40 45
-86 40 -191 l-3 -70 -105 -3 c-116 -3 -148 5 -185 50 -69 81 -46 201 49 259
37 23 106 25 145 5z m99 -711 c4 -93 -8 -142 -44 -185 -50 -59 -126 -75 -193
-40 -120 61 -130 222 -17 291 26 16 47 19 141 17 l110 -3 3 -80z m553 62 c77
-52 101 -140 58 -216 -52 -93 -169 -116 -253 -50 -44 35 -56 73 -56 186 l0
103 109 0 c96 0 112 -3 142 -23z m-6511 -4269 c63 -32 90 -77 90 -147 0 -66
-23 -111 -72 -141 -28 -17 -51 -20 -145 -20 l-113 0 0 94 c0 105 9 138 48 180
55 58 120 70 192 34z m13 -640 c93 -60 106 -195 25 -263 -62 -53 -126 -60
-192 -21 -66 38 -86 85 -86 198 0 52 3 98 7 101 3 4 53 7 110 7 89 0 108 -3
136 -22z m2538 -161 c18 -12 44 -38 57 -57 21 -31 22 -43 20 -139 l-3 -106
-100 -3 c-88 -2 -105 1 -140 21 -111 63 -117 210 -11 285 43 31 130 31 177 -1z
m635 1 c47 -32 74 -86 74 -145 0 -64 -30 -110 -90 -141 -39 -20 -58 -22 -140
-20 l-95 3 -3 106 c-2 96 -1 108 20 139 38 56 82 80 146 80 41 0 64 -6 88 -22z
m-558 -710 c4 -126 -17 -172 -95 -215 -38 -21 -115 -16 -154 10 -108 72 -107
212 1 285 31 21 43 22 139 20 l106 -3 3 -97z m553 79 c53 -36 79 -82 79 -142
0 -144 -160 -217 -274 -125 -40 33 -56 84 -56 183 0 51 3 97 7 100 3 4 52 7
108 7 90 0 106 -3 136 -23z m2491 -457 c48 -14 97 -55 114 -97 9 -19 14 -70
14 -127 0 -76 -3 -95 -16 -100 -9 -3 -53 -6 -98 -6 -142 0 -216 57 -216 167 0
83 33 132 107 159 47 16 49 16 95 4z m126 -733 c2 -87 0 -103 -20 -138 -46
-83 -157 -115 -229 -66 -53 35 -79 82 -79 140 0 62 29 117 79 146 31 18 49 21
141 18 l105 -2 3 -98z m-2007 -217 l579 0 0 -600 c0 -474 -3 -600 -13 -600 -6
0 -279 267 -605 593 -473 473 -590 595 -580 605 7 7 19 10 26 7 8 -3 274 -5
593 -5z m-324 -742 c282 -282 513 -516 513 -520 0 -5 -236 -8 -525 -8 l-525 0
0 520 c0 409 3 520 12 520 7 0 244 -231 525 -512z m-2186 -71 c18 -12 44 -38
57 -57 21 -31 22 -43 20 -139 l-3 -106 -97 -3 c-80 -2 -104 1 -135 17 -64 32
-93 79 -93 149 0 91 72 162 165 162 38 0 61 -6 86 -23z m636 -1 c54 -37 73
-72 73 -137 0 -65 -24 -109 -80 -147 -31 -21 -43 -22 -139 -20 l-106 3 -3 95
c-2 82 0 101 20 140 32 62 77 90 145 90 41 0 63 -6 90 -24z"/>
<path d="M7190 11780 l0 -150 310 0 310 0 0 150 0 150 -310 0 -310 0 0 -150z"/>
<path d="M5510 8904 c-131 -25 -267 -129 -325 -249 -73 -150 -59 -332 35 -471
16 -25 30 -47 30 -49 0 -2 -13 -24 -30 -48 -72 -107 -100 -227 -80 -339 37
-205 179 -349 383 -389 55 -10 82 -10 145 0 77 13 178 55 218 92 26 24 29 24
68 -6 48 -37 133 -71 209 -84 189 -33 399 77 481 254 76 161 64 326 -34 471
-16 25 -30 47 -30 50 0 3 11 20 25 38 36 48 71 133 84 206 14 83 -4 193 -44
277 -35 72 -132 170 -200 202 -27 13 -61 29 -74 35 -14 6 -76 11 -145 11 -131
-1 -165 -11 -263 -77 -23 -15 -44 -28 -48 -28 -4 0 -26 14 -50 30 -80 55 -132
72 -235 75 -52 2 -106 1 -120 -1z m160 -306 c25 -13 55 -38 68 -57 21 -32 22
-44 20 -145 l-3 -111 -45 -3 c-78 -6 -167 8 -202 32 -88 59 -102 173 -30 250
55 58 120 70 192 34z m617 11 c34 -13 80 -55 99 -91 38 -72 -2 -175 -83 -217
-28 -14 -171 -26 -207 -17 l-26 6 0 109 c0 95 3 112 23 142 25 38 97 79 138
79 15 0 40 -5 56 -11z m-527 -738 c0 -96 -3 -112 -23 -142 -70 -104 -206 -105
-276 -3 -52 75 -30 178 48 231 30 20 46 23 142 23 l109 0 0 -109z m561 86 c75
-50 99 -146 55 -221 -69 -117 -232 -111 -295 11 -6 12 -11 69 -11 127 l0 106
109 0 c96 0 112 -3 142 -23z"/>
<path d="M8770 8610 l0 -150 630 0 630 0 0 150 0 150 -630 0 -630 0 0 -150z"/>
<path d="M9473 8115 c-135 -27 -263 -121 -322 -238 -44 -86 -52 -122 -59 -262
l-7 -120 -130 -6 c-136 -7 -159 -12 -240 -50 -66 -30 -173 -139 -207 -209 -89
-188 -50 -401 98 -539 34 -32 86 -70 116 -84 146 -69 327 -58 456 28 59 39 83
43 103 19 7 -8 34 -26 61 -40 259 -131 547 -17 659 261 23 58 31 156 18 222
-14 75 -60 181 -90 208 -26 24 -24 36 11 88 69 103 99 229 80 335 -38 203
-182 350 -382 388 -83 16 -82 16 -165 -1z m174 -315 c85 -52 103 -171 37 -250
-39 -46 -83 -60 -189 -60 -109 0 -105 -4 -105 114 0 97 25 157 79 193 45 30
132 32 178 3z m-557 -719 c0 -121 -13 -154 -79 -198 -40 -27 -116 -31 -159 -9
-79 41 -116 146 -77 223 36 72 78 91 208 92 l107 1 0 -109z m549 88 c56 -31
84 -79 84 -144 0 -169 -222 -228 -308 -83 -14 24 -20 57 -23 125 -3 51 -2 99
2 108 4 12 25 15 107 15 84 0 108 -4 138 -21z"/>
</g>
</svg>
