<!DOCTYPE svg PUBLIC "-//W3C//DTD SVG 20010904//EN"
 "http://www.w3.org/TR/2001/REC-SVG-20010904/DTD/svg10.dtd">
 <svg version="1.0" xmlns="http://www.w3.org/2000/svg" width="80" height="80"  viewBox="0 0 1500.000000 1500.000000" preserveAspectRatio="xMidYMid meet">
<g class="svg_teste" transform="translate(0.000000,1500.000000) scale(0.100000,-0.100000)"
fill="#000000" stroke="none">
<path d="M7265 14984 c-27 -2 -131 -8 -230 -14 -255 -16 -534 -47 -790 -90
-204 -34 -628 -129 -775 -174 -25 -8 -72 -22 -105 -31 -280 -82 -699 -239
-970 -365 -705 -326 -1341 -746 -1900 -1252 -726 -658 -1309 -1437 -1730
-2312 -105 -219 -147 -317 -268 -626 -30 -77 -113 -324 -155 -465 -109 -359
-196 -767 -248 -1160 -48 -370 -57 -518 -57 -985 0 -469 9 -635 58 -997 109
-818 349 -1602 714 -2333 103 -207 122 -242 236 -440 367 -639 919 -1314 1480
-1810 453 -401 867 -694 1400 -990 417 -232 1012 -477 1490 -615 33 -9 80 -23
105 -30 369 -106 863 -194 1365 -242 278 -26 992 -24 1290 5 639 62 1147 169
1730 364 147 49 190 65 370 136 451 177 943 435 1365 715 928 617 1716 1442
2285 2392 238 398 426 787 592 1230 158 421 295 932 367 1375 31 191 36 228
55 405 34 310 46 520 45 835 0 742 -101 1436 -309 2140 -79 269 -201 603 -300
825 -133 297 -235 501 -368 735 -778 1366 -1981 2462 -3407 3108 -159 72 -398
172 -460 192 -14 5 -70 25 -125 45 -238 86 -517 169 -760 225 -71 17 -150 35
-175 41 -25 6 -67 15 -95 20 -27 4 -99 17 -160 29 -223 41 -498 75 -770 96
-186 14 -691 26 -790 18z m4409 -3666 c3 -13 7 -597 11 -1298 3 -701 10 -1981
16 -2844 9 -1301 8 -1571 -3 -1581 -10 -9 -501 -15 -2183 -24 -1193 -7 -2852
-16 -3685 -21 -1697 -11 -2510 -13 -2516 -7 -4 4 -20 2298 -30 4308 l-7 1437
374 6 c206 3 1330 11 2499 17 1169 6 2625 14 3235 18 611 4 1374 8 1697 9
l588 2 4 -22z m802 -6269 c19 -16 19 -261 -1 -384 -38 -245 -145 -453 -319
-628 -179 -179 -425 -298 -666 -321 -30 -3 -793 -10 -1695 -16 -2899 -18
-5085 -30 -5690 -31 -575 -1 -592 -1 -680 21 -237 57 -398 146 -553 303 -106
108 -152 171 -212 290 -92 183 -123 328 -118 557 l3 155 560 6 c308 3 1179 8
1935 10 l1375 4 3 -271 2 -271 763 4 c419 2 911 5 1092 6 l330 2 3 271 c2 271
2 272 25 278 12 3 422 6 912 7 925 2 2551 12 2783 17 92 2 138 -1 148 -9z"/>
<path d="M8015 10528 c-682 -4 -1847 -11 -2590 -15 l-1350 -8 4 -945 c2 -520
7 -1383 10 -1918 l6 -973 525 1 c289 0 1196 5 2015 10 820 5 2113 12 2875 16
762 3 1389 10 1394 15 5 4 4 752 -3 1811 -6 992 -11 1851 -11 1911 l0 107
-817 -2 c-450 -1 -1376 -5 -2058 -10z"/>
</g>
</svg>
