<!DOCTYPE svg PUBLIC "-//W3C//DTD SVG 20010904//EN"
 "http://www.w3.org/TR/2001/REC-SVG-20010904/DTD/svg10.dtd">
 <svg version="1.0" xmlns="http://www.w3.org/2000/svg" width="80" height="80"  viewBox="0 0 1500.000000 1500.000000" preserveAspectRatio="xMidYMid meet">
<g class="svg_teste" transform="translate(0.000000,1500.000000) scale(0.100000,-0.100000)"
fill="#000000" stroke="none">
<path d="M7305 14969 c-44 -4 -170 -13 -280 -19 -287 -16 -620 -56 -880 -105
-44 -9 -102 -20 -130 -25 -325 -60 -787 -193 -1164 -334 -267 -100 -674 -286
-891 -406 -47 -26 -107 -60 -135 -75 -331 -182 -781 -494 -1102 -762 -1006
-840 -1768 -1913 -2223 -3133 -256 -686 -409 -1414 -450 -2130 -6 -107 -16
-244 -22 -305 -6 -60 -8 -157 -5 -215 23 -416 41 -669 56 -785 6 -38 13 -97
16 -130 3 -33 10 -85 15 -115 5 -30 16 -100 25 -155 14 -86 26 -148 76 -392
13 -65 59 -253 73 -303 8 -25 24 -81 36 -125 68 -246 170 -539 278 -800 190
-461 467 -971 745 -1373 734 -1061 1739 -1926 2877 -2479 142 -69 174 -84 295
-138 263 -117 641 -250 990 -350 279 -80 693 -162 1055 -209 269 -35 897 -73
1039 -62 47 4 175 11 283 16 307 14 685 57 963 110 213 40 516 110 635 145 25
7 79 23 120 35 580 168 1236 458 1765 780 1502 916 2643 2341 3194 3986 128
386 197 648 271 1039 52 275 96 655 110 957 5 104 12 228 16 274 11 142 -26
779 -62 1054 -47 363 -128 769 -210 1055 -233 821 -543 1492 -1007 2185 -556
830 -1340 1592 -2192 2130 -550 348 -1178 639 -1760 817 -240 73 -464 133
-609 163 -289 58 -293 59 -551 101 -33 5 -100 14 -150 19 -49 6 -126 14 -170
19 -44 5 -170 14 -280 20 -110 7 -244 16 -298 21 -111 11 -245 11 -362 -1z
m1655 -3599 l0 -840 -512 2 -513 3 -3 825 c-1 454 0 831 3 838 3 9 116 12 515
12 l510 0 0 -840z m1464 396 c66 -30 163 -120 196 -185 55 -109 66 -239 29
-351 -65 -199 -263 -323 -459 -289 -80 13 -177 49 -251 92 -201 115 -549 331
-549 341 0 11 14 21 76 57 40 22 45 25 284 164 252 146 333 184 425 199 71 11
191 -3 249 -28z m-2629 -406 l0 -155 -220 -3 c-121 -2 -235 0 -253 3 -19 4
-51 23 -77 49 -44 41 -45 44 -45 104 0 55 3 65 32 98 54 61 66 64 328 61 l235
-2 0 -155z m1610 -1132 c3 -13 4 -214 3 -448 l-3 -425 -957 -3 -958 -2 0 443
c0 244 3 447 7 450 3 4 433 7 954 7 l949 0 5 -22z m251 -1208 c122 -48 415
-188 514 -246 79 -46 242 -154 320 -212 353 -263 703 -651 902 -999 10 -18 28
-50 39 -70 38 -67 139 -272 160 -326 11 -29 26 -65 34 -82 29 -67 87 -230 105
-300 71 -260 93 -372 120 -610 5 -44 14 -116 19 -160 13 -103 13 -279 0 -375
-5 -41 -14 -113 -19 -160 -11 -100 -26 -211 -35 -260 -10 -55 -42 -199 -56
-250 -28 -107 -101 -333 -126 -390 -8 -19 -18 -44 -23 -55 -30 -80 -102 -229
-161 -338 -246 -449 -600 -847 -1017 -1146 -101 -72 -295 -192 -379 -235 -30
-15 -168 -16 -1610 -14 l-1578 3 -112 73 c-62 41 -113 77 -113 81 0 5 24 30
53 57 102 95 197 223 254 345 18 37 34 59 44 59 10 0 48 -19 85 -42 38 -23 93
-52 122 -65 l53 -23 1232 2 1232 3 85 44 c47 24 97 52 112 62 14 11 29 19 32
19 15 0 200 130 311 219 499 398 845 951 994 1591 89 383 90 857 2 1245 -5 22
-13 60 -19 85 -18 82 -94 308 -137 407 -277 637 -739 1129 -1348 1436 -56 29
-120 59 -142 68 -22 9 -83 34 -135 55 l-95 39 -883 3 c-534 1 -896 -1 -915 -7
-42 -12 -156 -55 -204 -76 -21 -9 -47 -20 -58 -25 -42 -16 -251 -123 -313
-161 -73 -45 -81 -43 -112 25 -33 73 -122 189 -212 278 -48 48 -88 91 -88 97
0 27 541 311 593 311 8 0 17 3 21 7 4 4 44 20 89 34 l82 27 1076 1 1076 1 129
-50z m-3609 -391 c346 -84 594 -323 684 -659 18 -67 23 -112 23 -210 0 -149 4
-137 -156 -455 -252 -500 -409 -810 -414 -814 -2 -3 -28 2 -57 12 -29 9 -63
18 -77 21 -53 12 -52 6 -57 282 -6 290 -8 299 -80 329 -48 20 -78 19 -122 -6
-66 -36 -65 -36 -71 -334 l-5 -269 -30 -7 c-16 -3 -46 -13 -66 -21 -20 -9 -41
-13 -46 -9 -10 6 -35 52 -168 306 -37 72 -71 135 -75 140 -4 6 -58 109 -120
230 -63 121 -135 259 -160 307 -26 47 -51 99 -55 115 -14 50 -17 285 -5 343
74 343 337 611 681 695 68 16 313 19 376 4z m3282 -359 c34 -11 77 -26 96 -35
19 -8 52 -22 73 -31 290 -126 574 -322 809 -559 112 -114 254 -289 318 -394 6
-9 29 -46 51 -82 64 -100 184 -343 184 -372 0 -7 4 -17 9 -22 11 -13 75 -211
100 -310 18 -74 26 -113 51 -262 24 -148 31 -365 15 -543 -8 -96 -17 -184 -19
-195 -3 -11 -10 -49 -16 -85 -109 -619 -469 -1197 -989 -1588 -111 -84 -161
-116 -304 -199 l-59 -33 -1175 0 -1174 0 -69 45 c-38 24 -83 51 -100 60 -37
19 -70 50 -70 66 0 14 26 8 115 -26 62 -23 84 -26 195 -27 142 -1 203 14 319
78 85 48 215 178 257 259 65 123 78 177 78 320 0 129 -15 204 -55 282 -17 33
-5 53 33 53 36 0 205 46 278 76 340 138 616 473 692 839 16 77 21 361 8 430
-94 498 -451 862 -935 955 -33 7 -70 14 -82 16 -27 5 -29 24 -7 66 30 59 44
138 44 256 0 120 -8 162 -51 263 -104 248 -380 419 -638 396 -83 -8 -185 -34
-230 -59 -33 -19 -35 -19 -48 -2 -7 10 -13 30 -13 45 0 23 10 34 58 62 94 58
227 127 302 160 19 8 51 21 70 30 19 8 53 23 75 33 124 55 84 53 946 53 766 1
799 0 858 -19z m-1834 -610 c78 -37 165 -122 202 -198 25 -51 28 -68 28 -157
0 -95 -2 -104 -37 -175 -46 -93 -109 -157 -208 -208 -41 -22 -95 -50 -120 -64
-25 -14 -103 -56 -175 -93 -71 -37 -148 -78 -170 -90 -22 -13 -92 -50 -155
-82 -266 -139 -356 -186 -364 -194 -16 -14 -36 -10 -36 6 0 9 69 152 154 318
84 166 209 412 277 547 140 277 180 328 293 380 87 39 83 38 170 39 67 1 87
-3 141 -29z m-2995 -11 c125 -41 211 -124 288 -277 27 -53 89 -173 139 -267
49 -93 116 -219 148 -280 32 -60 75 -141 95 -180 94 -176 132 -256 127 -261
-3 -4 -136 59 -294 139 -158 80 -403 203 -543 274 -227 114 -262 135 -317 189
-85 84 -133 189 -133 294 0 94 35 180 104 257 108 120 243 159 386 112z m3460
-943 c349 -55 624 -299 728 -646 22 -73 26 -105 26 -230 1 -141 -4 -175 -39
-285 -89 -274 -317 -492 -605 -580 -88 -27 -236 -39 -326 -27 -73 10 -103 23
-389 167 -656 330 -776 392 -787 403 -10 10 -10 17 -1 31 6 10 16 36 22 57 19
68 4 64 287 71 229 5 263 8 290 24 39 23 59 69 56 126 -2 57 -26 91 -79 114
-40 17 -64 18 -287 12 l-244 -6 -11 39 c-6 21 -11 43 -11 47 0 5 -8 25 -17 44
-11 23 -13 40 -7 50 5 8 50 36 99 62 50 26 149 78 220 115 72 38 162 86 200
107 110 60 350 185 461 240 157 79 243 92 414 65z m-3881 -37 c79 -25 1111
-548 1118 -566 3 -8 1 -24 -6 -36 -6 -12 -17 -47 -25 -77 l-13 -55 -252 -7
c-284 -8 -311 -14 -344 -78 -21 -41 -17 -106 10 -146 32 -49 61 -54 331 -54
188 0 252 -3 259 -12 15 -18 46 -124 41 -138 -2 -7 -51 -36 -108 -67 -58 -30
-141 -74 -185 -97 -44 -24 -125 -67 -180 -96 -55 -29 -137 -72 -183 -96 -45
-24 -135 -72 -200 -105 -64 -34 -121 -65 -127 -69 -5 -4 -41 -19 -80 -35 -154
-61 -381 -41 -585 53 -108 49 -246 164 -329 274 -48 64 -112 186 -130 248 -7
25 -18 59 -25 75 -18 49 -14 368 6 438 55 190 173 361 331 480 106 80 195 121
357 165 50 14 277 14 319 1z m1933 -427 c217 -72 358 -293 319 -499 -35 -183
-132 -293 -324 -372 -15 -6 -69 -11 -119 -11 -142 0 -243 43 -334 142 -231
251 -121 638 211 743 61 20 183 18 247 -3z m642 -1092 c83 -43 317 -161 521
-264 203 -103 384 -198 402 -211 130 -100 201 -264 173 -401 -25 -121 -110
-232 -221 -290 -49 -26 -63 -29 -154 -29 -90 0 -106 3 -160 30 -93 45 -179
139 -242 266 -29 57 -76 149 -106 204 -29 55 -84 159 -122 230 -37 72 -80 153
-95 180 -94 174 -189 363 -184 368 8 8 17 4 188 -83z m-1344 57 c0 -7 -4 -17
-9 -22 -5 -6 -127 -244 -271 -530 -145 -286 -279 -541 -298 -567 -52 -70 -135
-125 -231 -154 -124 -38 -250 4 -357 118 -107 115 -137 234 -93 368 41 127
121 218 246 282 168 86 369 191 378 198 6 4 73 40 150 80 77 40 183 95 235
123 197 107 215 116 233 116 9 1 17 -5 17 -12z m954 -202 c34 -66 88 -169 120
-230 77 -144 151 -287 216 -410 29 -55 76 -145 106 -200 64 -121 84 -192 84
-305 0 -487 -404 -890 -892 -890 -390 0 -747 269 -856 645 -36 124 -47 240
-32 331 12 72 36 124 268 584 141 278 265 524 276 548 23 48 26 48 121 23 64
-16 65 -19 65 -272 0 -124 3 -241 6 -258 9 -43 52 -87 100 -100 34 -9 45 -8
83 12 86 43 86 44 83 322 -2 160 1 251 8 264 6 12 26 23 48 27 20 4 51 13 67
20 54 24 62 16 129 -111z"/>
</g>
</svg>
