<!DOCTYPE svg PUBLIC "-//W3C//DTD SVG 20010904//EN"
 "http://www.w3.org/TR/2001/REC-SVG-20010904/DTD/svg10.dtd">
 <svg version="1.0" xmlns="http://www.w3.org/2000/svg"
                                                             width="80" height="80"  viewBox="0 0 1500.000000 1500.000000"
                                                             preserveAspectRatio="xMidYMid meet">
                                                            <g class="svg_teste" transform="translate(0.000000,1500.000000) scale(0.100000,-0.100000)"
fill="#000000" stroke="none">
<path d="M7030 14959 c-1171 -82 -2251 -408 -3235 -974 -1872 -1077 -3186
-2904 -3604 -5011 -107 -535 -147 -997 -138 -1572 6 -361 20 -567 63 -881 261
-1928 1281 -3690 2829 -4887 1104 -854 2421 -1380 3800 -1518 486 -49 1014
-49 1500 0 1022 102 2023 422 2919 931 2022 1149 3400 3182 3710 5474 76 559
87 1206 30 1759 -105 1023 -424 2021 -931 2914 -1084 1907 -2955 3245 -5104
3650 -221 42 -487 79 -729 102 -203 19 -911 28 -1110 13z m-2189 -4149 c134
-33 242 -93 347 -194 286 -273 323 -703 88 -1016 -115 -154 -261 -251 -446
-296 -87 -21 -281 -18 -367 6 -217 60 -414 221 -500 410 -98 215 -107 386 -31
600 54 151 147 276 274 366 123 88 196 115 394 148 43 7 162 -5 241 -24z
m4515 14 c91 -43 133 -141 99 -230 -18 -47 -47 -75 -195 -186 l-85 -64 -3
-174 c-8 -440 63 -1048 188 -1610 4 -19 13 -57 19 -85 10 -49 73 -299 106
-420 14 -55 46 -163 65 -225 4 -14 17 -56 29 -95 41 -138 188 -575 211 -630 4
-11 17 -45 28 -75 81 -222 250 -631 384 -930 91 -202 425 -875 441 -888 8 -6
50 -4 117 4 288 37 582 -59 800 -262 57 -52 107 -75 180 -81 90 -8 161 15 231
74 89 74 149 98 249 98 71 0 94 -4 140 -26 72 -35 122 -81 165 -153 34 -58 35
-63 35 -166 0 -104 -1 -106 -37 -169 -74 -125 -272 -263 -468 -325 -73 -23
-218 -46 -290 -46 -74 0 -203 23 -295 51 -108 34 -221 96 -315 175 -148 122
-191 144 -285 144 -95 0 -129 -18 -292 -152 -207 -171 -503 -250 -759 -203
-215 40 -340 101 -519 255 -85 73 -129 93 -215 98 -90 5 -156 -22 -246 -103
-179 -161 -382 -246 -620 -262 -256 -16 -550 98 -731 284 -80 81 -110 150
-110 253 0 64 5 90 27 138 32 71 100 140 175 179 48 24 66 28 145 28 79 0 97
-4 144 -28 30 -16 72 -43 92 -62 71 -64 114 -80 214 -80 104 0 135 14 240 106
152 133 293 196 539 239 249 43 584 -62 786 -247 72 -66 127 -93 204 -100 98
-9 156 14 263 103 48 40 125 94 171 120 45 26 81 50 80 53 -2 3 -89 179 -195
391 -230 464 -386 811 -538 1200 -31 80 -60 154 -65 165 -9 22 -31 82 -84 225
-281 768 -502 1685 -565 2345 -6 61 -15 157 -21 215 -5 58 -10 194 -10 303 0
108 -2 197 -4 197 -3 0 -98 -71 -213 -158 -114 -87 -284 -216 -378 -287 -93
-71 -206 -156 -250 -190 -44 -34 -183 -139 -310 -235 -219 -165 -283 -214
-680 -515 -93 -71 -251 -191 -350 -266 -141 -107 -188 -148 -217 -192 -21 -30
-55 -70 -75 -87 -38 -31 -59 -43 -308 -174 -71 -38 -152 -81 -180 -96 -27 -15
-93 -50 -145 -77 -52 -28 -126 -68 -165 -88 -38 -21 -140 -74 -225 -119 l-155
-81 -100 0 c-122 1 -148 12 -285 120 -103 81 -155 122 -298 233 -78 61 -93 70
-98 55 -7 -20 -61 -166 -74 -198 -4 -11 -18 -47 -30 -80 -12 -33 -26 -69 -30
-80 -14 -32 -270 -719 -273 -730 -1 -7 165 -10 483 -10 l485 0 60 -24 c120
-48 205 -116 270 -216 27 -42 534 -1296 625 -1547 16 -42 36 -94 45 -115 38
-86 64 -158 81 -221 42 -159 -15 -351 -141 -477 -163 -163 -391 -200 -603 -97
-75 36 -190 150 -224 222 -25 53 -142 344 -336 835 -49 127 -122 312 -162 412
l-72 183 -866 2 -867 3 -68 32 c-137 65 -260 219 -303 379 -9 35 -16 100 -16
159 0 104 11 159 59 285 14 36 38 101 55 145 16 44 34 89 38 100 4 11 18 47
30 80 12 33 26 69 30 80 4 11 17 45 28 75 24 66 81 217 92 245 4 11 18 47 30
80 12 33 26 69 30 80 4 11 18 47 30 80 12 33 26 69 30 80 4 11 17 45 28 75 27
74 82 220 92 245 5 11 63 169 131 350 168 454 177 472 282 576 87 86 187 143
334 190 82 27 217 29 317 5 143 -34 305 -142 386 -257 60 -86 94 -118 239
-229 126 -97 223 -173 375 -292 47 -38 91 -68 98 -68 12 0 296 146 547 282 42
22 103 55 136 73 224 121 241 127 334 128 72 0 95 -5 142 -26 31 -14 62 -33
69 -42 7 -8 19 -15 28 -15 8 0 58 33 111 73 53 40 182 138 286 217 315 239
513 389 645 489 69 52 188 143 265 201 77 58 253 191 390 296 138 105 342 260
455 345 113 85 272 206 353 268 220 168 254 182 333 145z m-5003 -5169 c50
-21 93 -60 125 -114 l27 -46 0 -575 0 -575 -27 -47 c-36 -60 -86 -101 -150
-122 -45 -14 -139 -16 -859 -16 -715 0 -814 2 -856 16 -63 21 -109 57 -144
112 l-29 46 0 586 0 586 28 45 c35 53 56 73 108 99 38 19 66 19 890 20 725 0
857 -2 887 -15z"/>
</g>
</svg>