<!DOCTYPE svg PUBLIC "-//W3C//DTD SVG 20010904//EN"
 "http://www.w3.org/TR/2001/REC-SVG-20010904/DTD/svg10.dtd">
 <svg version="1.0" xmlns="http://www.w3.org/2000/svg"
                                                             width="80" height="80"  viewBox="0 0 1500.000000 1500.000000"
                                                             preserveAspectRatio="xMidYMid meet">
                                                            <g class="svg_teste" transform="translate(0.000000,1500.000000) scale(0.100000,-0.100000)"
fill="#000000" stroke="none">
<path d="M7174 14969 c-1598 -67 -3131 -646 -4379 -1653 -475 -383 -917 -843
-1300 -1351 -106 -141 -327 -471 -422 -630 -919 -1534 -1255 -3358 -947 -5135
228 -1320 813 -2553 1700 -3585 356 -414 745 -778 1199 -1120 141 -106 470
-327 630 -422 1850 -1108 4102 -1360 6165 -691 1160 376 2260 1072 3099 1961
384 408 726 857 998 1312 920 1535 1255 3357 947 5135 -228 1320 -813 2553
-1700 3585 -783 912 -1786 1628 -2895 2069 -810 321 -1593 487 -2484 526 -253
11 -343 11 -611 -1z m3416 -3179 c0 -5 7 -10 16 -10 33 0 135 -64 184 -116 28
-30 65 -84 83 -121 l32 -68 3 -1178 2 -1178 -152 3 -153 3 -5 1140 c-5 1083
-6 1142 -23 1169 -40 60 226 56 -3524 56 -3253 0 -3440 -1 -3473 -18 -20 -10
-42 -32 -52 -52 -17 -33 -18 -184 -18 -2733 0 -2942 -4 -2744 56 -2784 27 -17
81 -18 1019 -23 l990 -5 3 -152 3 -153 -1007 0 c-1120 0 -1059 -4 -1171 69
-72 46 -127 108 -160 181 -14 30 -30 63 -34 72 -13 26 -12 5588 1 5588 6 0 10
7 10 15 0 33 55 122 109 176 54 54 143 109 176 109 8 0 15 5 15 10 0 7 1185
10 3535 10 2350 0 3535 -3 3535 -10z m-272 -1622 l-3 -1043 -275 -6 c-227 -4
-283 -8 -320 -22 -104 -41 -192 -119 -239 -211 -52 -105 -51 -84 -51 -1453 l0
-1273 -168 0 -168 0 -23 51 c-33 71 -119 161 -188 195 -32 15 -89 33 -128 40
-95 17 -2694 20 -2794 3 -140 -24 -268 -115 -326 -233 l-27 -56 -907 2 -906 3
-3 2510 c-1 1381 0 2516 3 2523 3 9 666 12 3265 12 l3260 0 -2 -1042z m1400
-1342 c15 -8 39 -28 55 -45 l27 -31 0 -2731 0 -2732 -44 -43 -43 -44 -953 0
c-948 0 -952 0 -981 21 -64 45 -59 -187 -59 2802 l0 2724 22 28 c12 15 35 36
52 46 30 18 68 19 964 19 780 0 937 -2 960 -14z m-2938 -2682 c64 -55 60 52
60 -1459 0 -1504 4 -1401 -59 -1457 l-31 -28 -1400 0 -1400 0 -30 26 c-64 58
-61 -30 -58 1479 3 1302 4 1372 21 1398 10 16 32 37 50 47 31 20 62 20 1424
20 l1391 0 32 -26z m648 -422 l3 -153 -153 3 -153 3 -3 140 c-1 76 0 145 2
152 4 11 38 13 153 11 l148 -3 3 -153z m-3850 -1948 l-3 -279 -150 0 -150 0
-3 109 c-2 89 1 121 18 175 26 78 77 159 133 206 49 43 138 88 149 77 5 -5 7
-134 6 -288z"/>
<path d="M5475 8780 l-730 -730 98 -97 97 -98 732 732 733 733 -95 95 c-52 52
-97 95 -100 95 -3 0 -334 -328 -735 -730z"/>
<path d="M6955 8780 l-730 -730 98 -97 97 -98 730 730 c402 401 730 735 730
740 0 13 -172 185 -185 185 -6 0 -339 -328 -740 -730z"/>
<path d="M8435 8780 l-730 -730 98 -97 97 -98 730 730 c402 401 730 735 730
740 0 13 -172 185 -185 185 -6 0 -339 -328 -740 -730z"/>
<path d="M11210 8390 l0 -140 140 0 140 0 0 140 0 140 -140 0 -140 0 0 -140z"/>
<path d="M10024 7927 c-2 -7 -3 -71 -2 -143 l3 -129 140 0 140 0 3 143 3 142
-141 0 c-106 0 -142 -3 -146 -13z"/>
<path d="M10620 7795 l0 -145 140 0 140 0 0 145 0 145 -140 0 -140 0 0 -145z"/>
<path d="M11210 7795 l0 -145 140 0 140 0 0 145 0 145 -140 0 -140 0 0 -145z"/>
<path d="M10024 7337 c-2 -7 -3 -71 -2 -143 l3 -129 143 -3 143 -3 -3 143 -3
143 -138 3 c-107 2 -139 0 -143 -11z"/>
<path d="M10620 7205 l0 -145 140 0 140 0 0 145 0 145 -140 0 -140 0 0 -145z"/>
<path d="M11210 7205 l0 -145 140 0 140 0 0 145 0 145 -140 0 -140 0 0 -145z"/>
<path d="M10020 6610 l0 -140 145 0 145 0 0 140 0 140 -145 0 -145 0 0 -140z"/>
<path d="M10620 6610 l0 -140 140 0 140 0 0 140 0 140 -140 0 -140 0 0 -140z"/>
<path d="M11210 6610 l0 -140 140 0 140 0 0 140 0 140 -140 0 -140 0 0 -140z"/>
<path d="M10020 6020 l0 -140 145 0 145 0 0 140 0 140 -145 0 -145 0 0 -140z"/>
<path d="M10620 6020 l0 -140 140 0 140 0 0 140 0 140 -140 0 -140 0 0 -140z"/>
<path d="M11210 6020 l0 -140 140 0 140 0 0 140 0 140 -140 0 -140 0 0 -140z"/>
<path d="M10620 4960 c-216 -40 -413 -186 -508 -375 -63 -125 -77 -186 -77
-345 0 -162 14 -221 83 -355 51 -100 190 -237 292 -287 108 -54 192 -78 295
-85 454 -29 811 327 782 780 -19 301 -214 549 -507 647 -73 24 -279 36 -360
20z m278 -289 c194 -71 312 -234 312 -430 0 -205 -129 -371 -341 -439 -19 -7
-69 -12 -110 -12 -122 0 -216 38 -307 123 -98 94 -142 194 -142 329 0 197 111
353 300 426 75 29 214 30 288 3z"/>
</g>
</svg>