<!DOCTYPE svg PUBLIC "-//W3C//DTD SVG 20010904//EN"
 "http://www.w3.org/TR/2001/REC-SVG-20010904/DTD/svg10.dtd">
 <svg version="1.0" xmlns="http://www.w3.org/2000/svg" width="80" height="80"  viewBox="0 0 1500.000000 1500.000000" preserveAspectRatio="xMidYMid meet">
<g class="svg_teste" transform="translate(0.000000,1500.000000) scale(0.100000,-0.100000)"
fill="#000000" stroke="none">
<path d="M7245 14974 c-492 -29 -767 -58 -1070 -114 -60 -12 -132 -25 -160
-29 -54 -10 -63 -12 -290 -66 -730 -175 -1450 -473 -2108 -872 -714 -434
-1371 -1005 -1908 -1658 -505 -614 -935 -1363 -1217 -2120 -214 -575 -340
-1102 -421 -1765 -61 -491 -61 -1127 0 -1672 42 -378 123 -818 205 -1103 135
-475 234 -753 391 -1105 569 -1273 1464 -2342 2628 -3142 875 -600 1964 -1034
2998 -1193 470 -73 679 -88 1197 -89 518 0 725 15 1170 85 684 107 1357 311
1975 599 1120 522 2093 1311 2836 2300 590 786 1025 1695 1263 2645 101 403
160 756 203 1215 24 264 24 968 0 1235 -39 426 -94 766 -184 1135 -46 191 -52
214 -104 390 -243 825 -648 1626 -1176 2331 -354 472 -746 886 -1189 1256
-868 726 -1882 1243 -2960 1512 -258 65 -444 102 -754 150 -120 19 -334 42
-530 56 -190 15 -675 26 -795 19z m-2543 -4006 c60 -32 109 -82 144 -148 17
-31 19 -64 22 -297 l3 -263 160 0 159 0 0 245 c0 220 2 250 20 298 28 74 79
130 152 166 122 61 265 35 357 -65 80 -86 85 -105 88 -389 l3 -250 63 -6 c34
-4 71 -10 82 -14 90 -33 149 -81 190 -156 l30 -54 0 -535 c0 -581 -1 -599 -57
-760 -91 -263 -271 -483 -509 -622 -66 -39 -129 -68 -238 -109 l-34 -13 6
-130 c15 -305 130 -496 402 -668 152 -96 319 -278 423 -458 45 -79 104 -215
123 -285 4 -16 13 -48 19 -70 28 -103 39 -248 40 -513 l0 -272 858 2 857 3 6
40 c7 41 23 143 40 250 5 33 16 105 24 160 8 55 19 131 25 169 13 88 52 167
102 210 21 18 127 91 236 160 108 70 373 241 587 381 215 139 476 309 580 376
105 68 246 160 315 204 69 45 137 89 153 98 l27 18 -2 1322 -3 1322 -585 5
-585 5 -48 28 c-96 58 -157 164 -157 273 0 117 88 239 204 283 l57 21 1432 0
c1133 0 1439 -3 1467 -13 119 -43 189 -122 210 -236 20 -110 -13 -215 -89
-284 -85 -77 -39 -71 -691 -77 l-585 -5 -3 -1881 -2 -1882 52 -12 c169 -41
376 -162 532 -310 232 -221 370 -505 397 -820 34 -390 -95 -746 -369 -1023
-255 -259 -560 -387 -918 -387 -346 0 -650 122 -897 359 -175 169 -261 308
-359 586 l-14 40 -1569 3 c-962 1 -1573 -2 -1578 -7 -5 -5 -24 -53 -43 -105
-113 -330 -375 -622 -680 -756 -38 -17 -78 -35 -89 -40 -158 -71 -469 -101
-678 -65 -467 82 -849 410 -1008 864 l-36 106 -214 5 c-242 6 -263 11 -337 83
-68 65 -95 127 -95 217 0 90 22 147 83 213 76 84 104 91 349 97 l214 5 29 85
c72 215 166 369 318 520 267 265 601 393 985 377 304 -13 558 -117 793 -325
39 -35 72 -60 72 -56 0 11 -19 69 -47 143 -48 127 -148 252 -270 338 -222 155
-300 228 -440 411 -39 51 -131 235 -162 326 -51 145 -80 314 -84 496 l-2 84
-45 13 c-80 23 -244 110 -328 173 -217 164 -359 383 -433 665 -23 89 -24 96
-24 630 l0 540 28 55 c36 70 50 85 112 125 54 34 115 53 183 57 l44 3 -2 223
c0 130 4 240 10 265 26 102 87 179 176 222 39 19 65 24 128 25 69 0 85 -4 138
-32z"/>
<path d="M9565 6554 c-319 -207 -620 -402 -669 -433 -149 -94 -142 -84 -167
-251 -33 -221 -37 -254 -30 -263 4 -4 119 -6 256 -5 l249 3 14 40 c67 190 125
304 223 436 62 84 194 211 290 278 93 66 250 143 352 172 l77 23 0 188 c0 103
-3 188 -7 188 -5 0 -269 -170 -588 -376z"/>
<path d="M4710 5651 c-101 -22 -202 -101 -249 -193 -28 -56 -39 -148 -28 -233
19 -148 155 -274 313 -290 157 -17 298 59 369 201 27 54 30 68 30 159 0 90 -3
106 -28 155 -62 121 -175 198 -305 205 -37 2 -83 0 -102 -4z"/>
<path d="M10390 5651 c-100 -22 -199 -102 -246 -197 -39 -80 -46 -214 -15
-287 55 -128 147 -206 271 -228 231 -41 432 122 432 351 0 200 -140 353 -334
365 -40 2 -89 0 -108 -4z"/>
</g>
</svg>
