<!DOCTYPE svg PUBLIC "-//W3C//DTD SVG 20010904//EN"
 "http://www.w3.org/TR/2001/REC-SVG-20010904/DTD/svg10.dtd">
 <svg version="1.0" xmlns="http://www.w3.org/2000/svg"
                                                             width="80" height="80"  viewBox="0 0 1500.000000 1500.000000"
                                                             preserveAspectRatio="xMidYMid meet">
                                                            <g class="svg_teste" transform="translate(0.000000,1500.000000) scale(0.100000,-0.100000)"
fill="#000000" stroke="none">
<path d="M7250 14944 c-30 -2 -136 -8 -235 -14 -448 -28 -927 -102 -1335 -207
-74 -19 -153 -39 -175 -44 -22 -5 -51 -14 -65 -18 -14 -5 -59 -19 -100 -31
-135 -40 -456 -149 -515 -176 -16 -7 -55 -22 -85 -34 -30 -11 -64 -25 -75 -30
-11 -5 -51 -22 -90 -38 -319 -133 -743 -356 -1065 -560 -1146 -730 -2073
-1756 -2671 -2958 -97 -194 -140 -287 -191 -409 -16 -38 -33 -79 -38 -90 -54
-119 -185 -487 -240 -675 -12 -41 -26 -86 -31 -100 -4 -14 -13 -43 -18 -65 -5
-22 -24 -94 -41 -160 -17 -66 -37 -149 -45 -185 -45 -218 -57 -279 -74 -381
-76 -455 -104 -792 -105 -1254 0 -443 40 -936 104 -1270 5 -27 17 -88 25 -135
69 -380 192 -819 348 -1235 518 -1386 1476 -2612 2719 -3481 131 -91 440 -288
538 -341 30 -17 98 -54 150 -83 107 -59 391 -201 490 -244 36 -16 83 -37 105
-47 22 -10 81 -34 130 -54 50 -20 99 -40 110 -45 67 -32 436 -158 610 -209
223 -65 545 -143 701 -170 33 -6 100 -17 149 -26 167 -29 369 -55 590 -77 295
-29 1009 -31 1290 -5 495 47 884 115 1320 232 33 9 78 20 100 26 130 33 658
215 750 259 11 5 65 28 120 51 407 170 858 415 1245 677 1780 1205 2951 3102
3219 5212 48 377 55 497 55 960 0 384 -4 476 -23 670 -12 124 -26 257 -32 295
-41 282 -58 383 -84 505 -38 182 -50 236 -82 360 -44 174 -80 298 -131 460
-46 145 -119 349 -148 415 -7 17 -29 71 -49 120 -20 50 -44 108 -54 130 -10
22 -31 69 -47 105 -43 99 -185 383 -244 490 -29 52 -64 115 -77 140 -104 188
-318 515 -484 737 -710 955 -1658 1745 -2699 2250 -514 250 -1087 454 -1575
563 -55 12 -125 28 -155 35 -30 7 -95 20 -145 29 -49 9 -112 21 -140 26 -154
30 -448 65 -714 85 -190 15 -679 27 -791 19z m1307 -2835 c196 -71 344 -220
406 -409 20 -60 23 -79 117 -760 5 -41 19 -137 30 -212 11 -75 20 -155 20
-178 0 -67 -41 -126 -105 -150 -22 -9 -449 -12 -1676 -12 -1559 -1 -1648 0
-1683 17 -21 10 -50 36 -64 58 -24 36 -27 50 -25 110 5 125 31 180 104 217 37
19 61 20 639 20 663 0 634 -3 684 63 47 62 28 159 -41 204 -25 17 -70 18 -603
23 -424 4 -581 8 -596 17 -37 21 -83 81 -90 118 -3 19 -1 63 5 98 6 34 18 116
26 182 19 138 41 216 86 299 62 114 194 230 319 281 108 43 101 43 1265 42
l1110 -2 72 -26z m683 -2031 c208 -60 393 -167 442 -258 27 -48 20 -118 -16
-164 -36 -48 -51 -55 -174 -76 -231 -41 -315 -64 -487 -132 -337 -133 -718
-419 -798 -598 -24 -54 -46 -143 -47 -189 -1 -100 61 -241 140 -321 71 -71
137 -106 248 -129 49 -10 98 -24 109 -30 35 -18 72 -70 78 -109 30 -203 110
-323 261 -394 45 -21 88 -38 95 -38 20 0 78 -49 94 -80 8 -16 19 -71 25 -122
17 -166 77 -290 192 -393 103 -93 187 -128 355 -150 116 -15 151 -33 183 -95
19 -38 20 -61 20 -567 0 -568 -2 -594 -55 -746 -85 -247 -309 -470 -553 -552
-158 -53 -32 -50 -2002 -50 l-1835 0 -80 23 c-301 87 -536 299 -633 572 -49
138 -47 33 -47 2015 l0 1860 28 90 c48 150 120 270 231 381 159 159 358 251
576 267 25 2 844 3 1820 2 1583 -1 1781 -3 1830 -17z m759 -778 c125 -19 196
-32 226 -41 230 -67 259 -78 410 -156 196 -101 457 -305 485 -379 41 -108 -33
-224 -143 -224 -61 0 -92 16 -178 95 -175 161 -413 289 -629 339 -36 8 -90 21
-120 28 -36 8 -125 13 -255 13 -130 0 -219 -5 -255 -13 -30 -7 -84 -20 -120
-29 -71 -16 -151 -44 -217 -74 -24 -10 -45 -19 -48 -19 -3 0 -43 -21 -88 -47
-104 -60 -214 -140 -296 -215 -72 -67 -94 -78 -159 -78 -83 0 -152 70 -152
155 0 62 16 90 97 166 144 136 330 260 493 328 30 13 69 29 85 36 100 42 285
90 440 113 84 13 345 14 424 2z m41 -835 c154 -37 289 -108 421 -220 100 -85
123 -158 74 -240 -27 -48 -55 -69 -103 -80 -59 -13 -97 2 -179 71 -148 123
-312 181 -488 171 -164 -9 -290 -60 -429 -173 -48 -39 -92 -66 -113 -70 -105
-20 -204 78 -188 184 5 37 17 56 62 103 89 94 246 190 378 234 173 56 384 64
565 20z m-109 -717 c24 -15 61 -44 81 -65 138 -143 94 -378 -88 -467 -142 -70
-311 -15 -389 125 -27 48 -30 63 -30 139 0 98 15 139 76 205 33 36 85 69 139
89 8 3 49 4 91 3 61 -3 85 -9 120 -29z m-886 -3181 c55 -31 85 -79 85 -136 0
-25 -11 -122 -25 -216 -14 -93 -30 -204 -35 -245 -11 -94 -65 -480 -81 -580
-37 -236 -180 -419 -394 -507 l-70 -28 -1180 0 -1180 0 -76 36 c-167 80 -282
203 -341 366 -24 67 -29 92 -74 434 -8 57 19 115 73 156 l36 28 581 5 c454 4
586 8 604 18 62 35 82 140 39 203 -47 70 -25 68 -689 69 -397 0 -606 4 -625
11 -35 13 -70 45 -89 81 -22 42 -36 164 -24 207 10 40 60 94 100 110 16 6 609
10 1675 10 l1650 1 40 -23z"/>
</g>
</svg>