<!DOCTYPE svg PUBLIC "-//W3C//DTD SVG 20010904//EN"
 "http://www.w3.org/TR/2001/REC-SVG-20010904/DTD/svg10.dtd">
 <svg version="1.0" xmlns="http://www.w3.org/2000/svg"
                                                             width="80" height="80"  viewBox="0 0 1500.000000 1500.000000"
                                                             preserveAspectRatio="xMidYMid meet">
                                                            <g class="svg_teste" transform="translate(0.000000,1500.000000) scale(0.100000,-0.100000)"
fill="#000000" stroke="none">
<path d="M7285 14924 c-1429 -54 -2740 -475 -3904 -1253 -600 -402 -1194 -945
-1647 -1506 -894 -1108 -1447 -2433 -1603 -3840 -34 -310 -44 -489 -44 -830 0
-341 10 -520 44 -830 167 -1506 784 -2906 1788 -4060 142 -163 465 -490 636
-643 1158 -1038 2592 -1680 4130 -1851 310 -34 489 -44 830 -44 341 0 520 10
830 44 1528 169 2943 800 4105 1829 173 153 515 497 661 665 1005 1155 1621
2554 1788 4060 34 310 44 489 44 830 0 341 -10 520 -44 830 -167 1505 -784
2906 -1788 4060 -142 163 -465 490 -636 643 -1241 1112 -2795 1768 -4460 1881
-167 12 -591 20 -730 15z m548 -2537 c3 -7 1 -33 -4 -58 -38 -185 -47 -240
-64 -394 -19 -172 -19 -570 0 -735 19 -166 38 -283 55 -350 5 -19 19 -75 31
-125 127 -531 413 -1058 799 -1476 49 -53 90 -101 90 -106 0 -4 -279 -287
-620 -628 l-620 -620 -1620 1620 c-891 891 -1620 1625 -1620 1630 0 12 166
152 310 261 456 346 983 618 1510 781 63 19 149 44 190 55 41 11 91 24 110 29
19 5 58 14 85 19 28 6 70 15 95 20 25 6 70 14 100 19 30 6 93 16 140 24 47 8
137 20 200 27 63 7 120 14 125 15 6 2 166 4 356 4 278 1 348 -2 352 -12z m702
-87 c33 -6 76 -15 95 -20 19 -5 62 -16 95 -24 195 -47 477 -140 635 -209 19
-9 58 -24 85 -35 63 -25 336 -159 435 -213 97 -54 293 -176 395 -247 206 -143
485 -366 485 -388 0 -14 -1603 -1614 -1617 -1614 -25 0 -213 215 -318 365
-145 207 -233 373 -346 650 -71 176 -132 440 -168 735 -14 109 -14 440 -1 550
25 200 72 443 90 465 8 9 20 10 43 5 18 -5 59 -14 92 -20z m2656 -1559 c8 -10
46 -56 84 -102 345 -411 649 -931 827 -1412 53 -144 105 -312 101 -323 -9 -25
-270 -101 -508 -148 -535 -106 -1131 -41 -1652 180 -180 76 -453 228 -453 252
0 12 1564 1572 1576 1572 6 0 18 -9 25 -19z m-5706 -1621 l1620 -1620 -620
-620 c-341 -341 -624 -620 -628 -620 -5 0 -54 42 -110 94 -307 285 -692 525
-1076 670 -238 91 -509 162 -741 195 -313 46 -757 42 -1055 -9 -57 -9 -106
-19 -204 -39 -78 -16 -73 -43 -68 388 2 214 9 417 15 456 7 39 17 106 23 150
11 80 23 156 39 230 5 22 14 67 21 100 6 33 18 85 26 115 8 30 23 87 33 125
123 482 379 1039 679 1480 130 192 394 525 416 525 5 0 739 -729 1630 -1620z
m3762 -374 c217 -155 586 -336 878 -430 225 -73 369 -107 620 -143 171 -25
689 -25 860 0 246 36 506 96 662 154 55 20 70 13 77 -39 4 -24 11 -70 16 -103
37 -235 42 -340 37 -735 -2 -221 -9 -426 -15 -465 -7 -38 -17 -106 -23 -150
-5 -44 -15 -102 -20 -130 -5 -27 -14 -75 -20 -105 -6 -30 -14 -71 -19 -90 -5
-19 -15 -64 -23 -100 -38 -163 -134 -485 -166 -555 -5 -11 -24 -58 -42 -105
-119 -310 -311 -674 -518 -980 -125 -185 -384 -510 -406 -510 -16 0 -3235
3223 -3235 3240 0 18 1259 1280 1277 1280 7 0 34 -15 60 -34z m-125 -3263
c890 -890 1618 -1623 1618 -1629 0 -6 -57 -57 -126 -115 -488 -404 -1024 -703
-1615 -900 -158 -53 -367 -110 -504 -138 -33 -7 -78 -16 -100 -21 -74 -16
-150 -28 -230 -39 -44 -6 -111 -16 -150 -23 -98 -15 -820 -23 -943 -9 -265 29
-394 49 -406 61 -5 5 6 55 27 122 93 289 134 517 157 855 18 265 -11 639 -70
901 -25 109 -32 139 -40 162 -4 14 -13 45 -20 70 -65 230 -170 479 -303 720
-39 72 -42 75 -127 208 l-73 114 639 639 c351 351 641 639 644 639 3 0 733
-728 1622 -1617z m-5422 1206 c179 -22 299 -42 415 -71 122 -30 286 -81 317
-98 10 -6 22 -10 28 -10 21 0 339 -152 430 -206 196 -115 560 -406 560 -447 0
-13 -1600 -1617 -1613 -1617 -11 0 -40 33 -171 195 -126 157 -195 253 -313
435 -77 119 -96 152 -177 300 -48 86 -150 297 -182 373 -14 34 -32 76 -39 92
-53 124 -117 309 -165 477 -58 205 -64 229 -90 358 -7 30 -15 69 -20 87 -5 22
-4 36 5 43 21 17 263 65 450 88 101 13 465 14 565 1z m2171 -1356 c56 -86 180
-328 223 -438 98 -245 161 -507 196 -811 24 -215 6 -579 -40 -789 -5 -22 -14
-65 -21 -95 -30 -138 -111 -394 -128 -405 -10 -6 -240 68 -356 115 -11 4 -36
14 -55 21 -134 48 -445 199 -635 307 -119 68 -375 238 -502 334 -143 108 -312
250 -313 263 0 11 1561 1575 1573 1575 4 0 30 -35 58 -77z"/>
</g>
</svg>