       <!DOCTYPE svg PUBLIC "-//W3C//DTD SVG 20010904//EN"
 "http://www.w3.org/TR/2001/REC-SVG-20010904/DTD/svg10.dtd">
 <svg version="1.0" xmlns="http://www.w3.org/2000/svg"
                                                             width="100" height="100"  viewBox="0 0 1500.000000 1500.000000"
                                                             preserveAspectRatio="xMidYMid meet">
                                                            <g class="svg_teste" transform="translate(0.000000,1500.000000) scale(0.100000,-0.100000)"
fill="#000000" stroke="none">
<path d="M7015 14940 c-1434 -102 -2729 -566 -3871 -1386 -340 -244 -586 -455
-915 -783 -264 -265 -421 -441 -620 -697 -854 -1098 -1385 -2422 -1523 -3799
-37 -364 -47 -853 -26 -1190 106 -1649 713 -3141 1789 -4404 156 -183 592
-620 771 -772 668 -570 1346 -981 2136 -1294 1085 -431 2294 -598 3469 -479
1518 154 2915 757 4105 1773 180 154 616 590 771 772 637 747 1096 1550 1407
2460 340 995 463 2074 356 3134 -144 1434 -707 2793 -1627 3930 -239 295 -626
695 -907 936 -1209 1036 -2625 1636 -4210 1785 -201 19 -910 28 -1105 14z
m-1188 -2606 c70 -53 68 -36 68 -559 0 -534 3 -511 -83 -566 -60 -38 -113 -39
-169 -2 -23 14 -51 43 -62 63 -20 37 -21 49 -21 506 0 453 1 470 20 502 40 66
68 81 144 82 59 0 74 -4 103 -26z m1629 -19 c26 -26 45 -58 49 -77 3 -18 5
-238 3 -490 l-3 -456 -31 -39 c-17 -21 -46 -46 -65 -55 -70 -35 -147 -14 -203
55 l-31 39 -3 456 c-2 252 0 472 3 490 4 19 23 51 49 77 l43 45 73 0 73 0 43
-45z m1596 20 c15 -13 37 -38 48 -57 19 -32 20 -49 20 -503 l0 -471 -27 -42
c-50 -77 -142 -102 -218 -59 -52 30 -82 76 -90 140 -3 29 -5 243 -3 477 3 471
2 460 70 514 28 22 43 26 103 26 59 -1 74 -4 97 -25z m773 -1630 c199 -31 344
-103 472 -234 131 -133 198 -269 228 -466 22 -134 22 -4836 0 -4970 -31 -199
-99 -336 -231 -469 -133 -132 -270 -200 -469 -231 -135 -22 -4848 -22 -4975 0
-192 32 -329 99 -454 221 -138 136 -210 278 -241 479 -22 134 -22 4836 0 4970
31 199 99 336 231 469 130 129 269 200 459 231 124 20 4852 21 4980 0z m-6247
-1419 c36 -19 78 -65 91 -99 18 -48 13 -91 -18 -139 -55 -86 -32 -83 -566 -83
-523 0 -506 -2 -559 68 -22 29 -26 44 -26 103 1 76 16 104 82 144 32 19 49 20
501 20 383 0 473 -3 495 -14z m8520 -6 c66 -40 81 -68 82 -144 0 -59 -4 -74
-26 -103 -53 -69 -42 -68 -514 -71 -234 -2 -448 0 -477 3 -132 16 -204 148
-136 252 14 22 42 50 62 62 35 20 48 21 506 21 455 0 471 -1 503 -20z m-8491
-1626 c96 -77 96 -191 0 -268 l-39 -31 -456 -3 c-252 -2 -472 0 -490 3 -19 4
-51 23 -77 49 l-45 43 0 71 c0 65 3 74 30 105 60 69 43 67 567 64 l471 -2 39
-31z m8479 20 c19 -9 47 -32 64 -50 27 -32 30 -41 30 -106 l0 -71 -45 -43
c-26 -26 -58 -45 -77 -49 -18 -3 -238 -5 -490 -3 l-456 3 -39 31 c-107 87 -92
224 32 288 26 14 93 16 488 16 401 0 463 -2 493 -16z m-8498 -1617 c18 -10 46
-39 63 -65 43 -69 37 -136 -19 -195 -55 -58 -41 -57 -549 -57 -452 0 -469 1
-501 20 -66 40 -81 68 -82 144 0 59 4 74 25 102 30 39 56 55 105 65 19 4 235
6 480 6 408 -2 448 -3 478 -20z m8509 1 c18 -10 43 -33 57 -51 22 -29 26 -44
26 -103 -1 -77 -16 -104 -80 -143 -34 -20 -45 -21 -504 -21 -454 0 -469 1
-505 21 -81 45 -113 148 -69 223 27 47 63 75 109 86 19 5 237 8 484 7 408 -2
453 -4 482 -19z m-6292 -2221 c52 -29 82 -76 90 -140 4 -29 5 -243 3 -477 -3
-472 -2 -461 -71 -514 -29 -22 -44 -26 -103 -26 -77 1 -104 16 -143 80 -20 34
-21 45 -21 504 0 457 1 469 21 506 47 82 145 112 224 67z m1604 5 c19 -9 48
-34 65 -55 l31 -39 3 -456 c2 -252 0 -472 -3 -490 -4 -19 -23 -51 -49 -77
l-43 -45 -73 0 -73 0 -43 45 c-26 26 -45 58 -49 77 -3 18 -5 238 -3 490 l3
456 31 39 c37 45 86 72 134 72 19 0 50 -8 69 -17z m1615 -2 c25 -12 52 -36 69
-62 l27 -42 0 -471 c0 -454 -1 -471 -20 -503 -40 -66 -68 -81 -144 -82 -59 0
-74 4 -103 26 -69 52 -68 43 -71 504 -2 228 -1 443 3 477 8 74 34 118 90 150
49 28 96 29 149 3z"/>
<path d="M7095 8594 c-224 -30 -405 -88 -620 -196 -202 -102 -466 -307 -499
-387 -21 -55 -20 -80 7 -131 24 -46 74 -80 118 -80 63 0 90 14 176 92 178 160
385 279 593 341 81 24 115 32 238 56 71 14 389 14 466 0 340 -62 591 -182 830
-398 94 -85 130 -100 198 -86 49 11 75 32 98 79 24 51 25 73 4 127 -34 83
-298 286 -514 394 -63 32 -124 61 -135 65 -11 5 -45 18 -75 29 -241 93 -610
132 -885 95z"/>
<path d="M7150 7745 c-215 -47 -382 -132 -517 -262 -78 -75 -91 -129 -50 -211
16 -33 87 -72 131 -72 47 0 64 9 151 81 76 62 174 117 245 138 25 7 58 18 74
24 38 14 274 14 312 0 16 -5 47 -16 69 -22 72 -21 183 -83 242 -134 82 -70
113 -87 156 -87 45 0 108 30 129 62 20 31 30 87 21 128 -16 80 -239 246 -413
308 -52 19 -78 26 -192 51 -62 14 -288 12 -358 -4z"/>
<path d="M7285 7010 c-64 -13 -91 -27 -135 -66 -111 -101 -133 -246 -57 -376
32 -55 82 -94 150 -119 137 -50 289 11 359 143 19 36 23 59 23 133 0 80 -3 95
-27 135 -68 115 -192 175 -313 150z"/>
</g>
</svg>
