<?xml version="1.0" standalone="no"?>
<!DOCTYPE svg PUBLIC "-//W3C//DTD SVG 20010904//EN"
 "http://www.w3.org/TR/2001/REC-SVG-20010904/DTD/svg10.dtd">
<svg version="1.0" xmlns="http://www.w3.org/2000/svg"
 width="1500.000000pt" height="1500.000000pt" viewBox="0 0 1500.000000 1500.000000"
 preserveAspectRatio="xMidYMid meet">

<g transform="translate(0.000000,1500.000000) scale(0.100000,-0.100000)"
fill="#000000" stroke="none">
<path d="M7320 14994 c-30 -2 -140 -8 -245 -14 -1333 -77 -2599 -498 -3703
-1232 -449 -299 -756 -551 -1158 -953 -270 -269 -426 -445 -625 -701 -930
-1200 -1461 -2609 -1559 -4139 -13 -205 -13 -675 0 -880 90 -1403 543 -2704
1338 -3840 256 -365 498 -652 836 -991 267 -267 408 -394 650 -587 1610 -1280
3671 -1836 5716 -1541 1446 208 2815 849 3910 1832 176 157 497 482 643 650
977 1120 1594 2485 1787 3952 70 535 79 1182 24 1720 -156 1529 -765 2940
-1783 4130 -150 176 -599 625 -771 771 -1283 1094 -2786 1705 -4445 1809 -185
11 -535 19 -615 14z m1398 -2847 c61 -33 102 -75 128 -132 27 -61 26 -34 25
-547 l-1 -418 -550 0 -550 0 0 455 0 454 24 53 c26 59 71 105 131 137 38 20
53 21 395 21 351 0 356 0 398 -23z m-3788 -1102 c238 -55 447 -213 562 -425
63 -115 98 -243 98 -358 0 -168 50 -443 100 -557 55 -125 98 -211 133 -265
135 -211 339 -401 543 -507 52 -26 94 -54 94 -60 0 -10 -348 -13 -1705 -13
-1776 0 -1763 0 -1672 39 49 22 175 99 242 149 94 70 264 248 331 347 99 146
182 333 218 495 22 95 46 295 46 382 0 188 95 402 244 550 111 110 225 174
386 218 85 24 288 26 380 5z m3835 -533 c14 -9 545 -1073 545 -1089 0 -10
-205 -13 -990 -13 -717 0 -990 3 -990 11 0 13 526 1067 542 1087 8 9 110 12
447 12 240 0 441 -4 446 -8z m2710 -1664 c53 -29 106 -88 131 -144 24 -54 24
-59 24 -354 l0 -300 164 0 c138 0 171 -3 208 -19 60 -26 104 -65 138 -125 26
-45 30 -61 30 -134 0 -95 -15 -134 -77 -196 -69 -70 -105 -80 -295 -84 l-168
-4 0 -264 0 -264 164 0 c119 0 173 -4 197 -14 61 -26 118 -75 149 -128 27 -48
30 -62 30 -138 0 -76 -3 -90 -30 -137 -34 -58 -73 -92 -143 -122 -42 -18 -69
-21 -208 -21 l-159 0 0 -1672 c0 -1359 -3 -1680 -13 -1711 -23 -63 -72 -124
-129 -156 l-53 -31 -2010 0 -2010 0 -53 30 c-59 34 -115 104 -132 165 -7 26
-10 146 -8 345 l3 305 1000 5 c836 4 1004 7 1025 19 78 44 120 96 145 176 13
44 15 289 15 1983 0 2121 3 2000 -58 2075 -37 44 -50 55 -102 80 l-45 22 -990
5 -990 5 -3 295 c-2 213 1 306 9 335 33 104 121 181 224 194 27 3 937 4 2020
1 1817 -5 1972 -6 2000 -22z m-4790 -541 c3 -12 5 -214 3 -448 l-3 -425 -30
-59 c-34 -66 -98 -122 -164 -142 -61 -19 -3420 -18 -3474 0 -63 23 -124 72
-156 129 l-31 53 0 458 0 457 1925 0 1925 0 5 -23z m2185 -809 c0 -245 0
-3267 0 -3275 0 -10 -172 -13 -825 -13 l-825 0 0 1643 c0 904 3 1647 7 1650 3
4 375 7 825 7 648 0 818 -3 818 -12z m-2572 -817 c9 -5 100 -176 202 -381
l185 -371 3 -1422 c2 -1091 0 -1432 -9 -1467 -23 -83 -76 -150 -153 -191 -35
-19 -75 -19 -1771 -19 -1734 0 -1734 0 -1774 21 -48 25 -104 81 -131 131 -19
36 -20 57 -20 368 l0 330 998 2 997 3 47 27 c25 16 60 45 77 65 63 77 61 41
61 988 0 978 5 921 -80 1006 -83 83 -21 79 -1127 79 l-973 0 0 45 c0 38 27 99
181 407 99 200 188 369 197 376 12 9 337 12 1545 12 901 0 1535 -4 1545 -9z
m-1823 -1916 l0 -550 -822 -3 -823 -2 0 555 0 555 823 -2 822 -3 0 -550z"/>
<path d="M10147 8020 c-69 -27 -108 -60 -140 -118 -71 -130 -28 -284 101 -360
41 -23 58 -27 127 -27 87 0 117 11 180 67 59 52 80 101 80 193 0 69 -4 86 -27
127 -36 61 -91 105 -152 123 -65 20 -110 18 -169 -5z"/>
<path d="M10162 6930 c-75 -25 -122 -66 -157 -135 l-30 -60 -3 -858 c-3 -987
-7 -933 82 -1022 53 -53 121 -85 180 -85 87 1 187 60 233 137 l28 48 3 880 c3
991 6 943 -71 1023 -46 48 -80 66 -147 81 -56 13 -54 13 -118 -9z"/>
<path d="M10154 4192 c-84 -29 -133 -77 -165 -163 -23 -59 -24 -99 -4 -165 18
-61 62 -116 123 -152 41 -23 58 -27 127 -27 91 0 137 19 191 77 45 47 65 93
71 157 12 132 -64 241 -193 279 -55 16 -89 15 -150 -6z"/>
</g>
</svg>
